<svg width="76" height="42" xmlns="http://www.w3.org/2000/svg" fill="#fff">
    <!-- строка 1 -->
    <rect x="0" y="0" width="2" height="2" />
    <rect x="8" y="0" width="2" height="2" />
    <rect x="16" y="0" width="2" height="2" />
    <rect x="24" y="0" width="2" height="2" />

    <rect x="32" y="0" width="2" height="2" />
    <rect x="36" y="0" width="2" height="2" />
    <rect x="40" y="0" width="2" height="2" />
    <rect x="44" y="0" width="2" height="2" />
    <rect x="48" y="0" width="2" height="2" />
    <rect x="52" y="0" width="2" height="2" />
    <rect x="56" y="0" width="2" height="2" />
    <rect x="60" y="0" width="2" height="2" />
    <rect x="64" y="0" width="2" height="2" />
    <rect x="68" y="0" width="2" height="2" />
    <rect x="72" y="0" width="2" height="2" />
    <rect x="76" y="0" width="2" height="2" />

    <!-- строка 2 -->
    <rect x="50" y="2" width="2" height="2" />
    <rect x="58" y="2" width="2" height="2" />
    <rect x="66" y="2" width="2" height="2" />
    <rect x="74" y="2" width="2" height="2" />

    <!-- строка 3 -->
    <rect x="12" y="4" width="2" height="2" />
    <rect x="20" y="4" width="2" height="2" />
    <rect x="24" y="4" width="2" height="2" />
    <rect x="28" y="4" width="2" height="2" />

    <rect x="32" y="4" width="2" height="2" />
    <rect x="36" y="4" width="2" height="2" />
    <rect x="40" y="4" width="2" height="2" />
    <rect x="44" y="4" width="2" height="2" />
    <rect x="48" y="4" width="2" height="2" />
    <rect x="52" y="4" width="2" height="2" />
    <rect x="56" y="4" width="2" height="2" />
    <rect x="60" y="4" width="2" height="2" />
    <rect x="64" y="4" width="2" height="2" />
    <rect x="68" y="4" width="2" height="2" />
    <rect x="72" y="4" width="2" height="2" />
    <rect x="76" y="4" width="2" height="2" />

    <!-- строка 4 -->
    <rect x="62" y="6" width="2" height="2" />
    <rect x="70" y="6" width="2" height="2" />
    <rect x="74" y="6" width="2" height="2" />

    <!-- строка 1 -->
    <rect x="0" y="8" width="2" height="2" />
    <rect x="8" y="8" width="2" height="2" />
    <rect x="16" y="8" width="2" height="2" />
    <rect x="24" y="8" width="2" height="2" />

    <rect x="32" y="8" width="2" height="2" />
    <rect x="36" y="8" width="2" height="2" />
    <rect x="40" y="8" width="2" height="2" />
    <rect x="44" y="8" width="2" height="2" />
    <rect x="48" y="8" width="2" height="2" />
    <rect x="52" y="8" width="2" height="2" />
    <rect x="56" y="8" width="2" height="2" />
    <rect x="60" y="8" width="2" height="2" />
    <rect x="64" y="8" width="2" height="2" />
    <rect x="68" y="8" width="2" height="2" />
    <rect x="72" y="8" width="2" height="2" />
    <rect x="76" y="8" width="2" height="2" />

    <!-- строка 2 -->
    <rect x="50" y="10" width="2" height="2" />
    <rect x="58" y="10" width="2" height="2" />
    <rect x="66" y="10" width="2" height="2" />
    <rect x="74" y="10" width="2" height="2" />

    <!-- строка 3 -->
    <rect x="12" y="12" width="2" height="2" />
    <rect x="20" y="12" width="2" height="2" />
    <rect x="24" y="12" width="2" height="2" />
    <rect x="28" y="12" width="2" height="2" />

    <rect x="32" y="12" width="2" height="2" />
    <rect x="36" y="12" width="2" height="2" />
    <rect x="40" y="12" width="2" height="2" />
    <rect x="44" y="12" width="2" height="2" />
    <rect x="48" y="12" width="2" height="2" />
    <rect x="52" y="12" width="2" height="2" />
    <rect x="56" y="12" width="2" height="2" />
    <rect x="60" y="12" width="2" height="2" />
    <rect x="64" y="12" width="2" height="2" />
    <rect x="68" y="12" width="2" height="2" />
    <rect x="72" y="12" width="2" height="2" />
    <rect x="76" y="12" width="2" height="2" />

    <!-- строка 4 -->
    <rect x="62" y="14" width="2" height="2" />
    <rect x="70" y="14" width="2" height="2" />
    <rect x="74" y="14" width="2" height="2" />


    <!-- строка 1 -->
    <rect x="0" y="16" width="2" height="2" />
    <rect x="8" y="16" width="2" height="2" />
    <rect x="16" y="16" width="2" height="2" />
    <rect x="24" y="16" width="2" height="2" />
    <rect x="32" y="16" width="2" height="2" />
    <rect x="36" y="16" width="2" height="2" />
    <rect x="40" y="16" width="2" height="2" />
    <rect x="44" y="16" width="2" height="2" />
    <rect x="48" y="16" width="2" height="2" />
    <rect x="52" y="16" width="2" height="2" />
    <rect x="56" y="16" width="2" height="2" />
    <rect x="60" y="16" width="2" height="2" />
    <rect x="64" y="16" width="2" height="2" />
    <rect x="68" y="16" width="2" height="2" />
    <rect x="72" y="16" width="2" height="2" />
    <rect x="76" y="16" width="2" height="2" />

    <!-- строка 2 -->
    <rect x="50" y="18" width="2" height="2" />
    <rect x="58" y="18" width="2" height="2" />
    <rect x="66" y="18" width="2" height="2" />
    <rect x="74" y="18" width="2" height="2" />

    <!-- строка 3 -->
    <rect x="12" y="20" width="2" height="2" />
    <rect x="20" y="20" width="2" height="2" />
    <rect x="24" y="20" width="2" height="2" />
    <rect x="28" y="20" width="2" height="2" />
    <rect x="32" y="20" width="2" height="2" />
    <rect x="36" y="20" width="2" height="2" />
    <rect x="40" y="20" width="2" height="2" />
    <rect x="44" y="20" width="2" height="2" />
    <rect x="48" y="20" width="2" height="2" />
    <rect x="52" y="20" width="2" height="2" />
    <rect x="56" y="20" width="2" height="2" />
    <rect x="60" y="20" width="2" height="2" />
    <rect x="64" y="20" width="2" height="2" />
    <rect x="68" y="20" width="2" height="2" />
    <rect x="72" y="20" width="2" height="2" />
    <rect x="76" y="20" width="2" height="2" />

    <!-- строка 4 -->
    <rect x="62" y="22" width="2" height="2" />
    <rect x="70" y="22" width="2" height="2" />
    <rect x="74" y="22" width="2" height="2" />


    <!-- строка 1 -->
    <rect x="0" y="24" width="2" height="2" />
    <rect x="8" y="24" width="2" height="2" />
    <rect x="16" y="24" width="2" height="2" />
    <rect x="24" y="24" width="2" height="2" />
    <rect x="32" y="24" width="2" height="2" />
    <rect x="36" y="24" width="2" height="2" />
    <rect x="40" y="24" width="2" height="2" />
    <rect x="44" y="24" width="2" height="2" />
    <rect x="48" y="24" width="2" height="2" />
    <rect x="52" y="24" width="2" height="2" />
    <rect x="56" y="24" width="2" height="2" />
    <rect x="60" y="24" width="2" height="2" />
    <rect x="64" y="24" width="2" height="2" />
    <rect x="68" y="24" width="2" height="2" />
    <rect x="72" y="24" width="2" height="2" />
    <rect x="76" y="24" width="2" height="2" />

    <!-- строка 2 -->
    <rect x="50" y="26" width="2" height="2" />
    <rect x="58" y="26" width="2" height="2" />
    <rect x="66" y="26" width="2" height="2" />
    <rect x="74" y="26" width="2" height="2" />

    <!-- строка 3 -->
    <rect x="12" y="28" width="2" height="2" />
    <rect x="20" y="28" width="2" height="2" />
    <rect x="24" y="28" width="2" height="2" />
    <rect x="28" y="28" width="2" height="2" />
    <rect x="32" y="28" width="2" height="2" />
    <rect x="36" y="28" width="2" height="2" />
    <rect x="40" y="28" width="2" height="2" />
    <rect x="44" y="28" width="2" height="2" />
    <rect x="48" y="28" width="2" height="2" />
    <rect x="52" y="28" width="2" height="2" />
    <rect x="56" y="28" width="2" height="2" />
    <rect x="60" y="28" width="2" height="2" />
    <rect x="64" y="28" width="2" height="2" />
    <rect x="68" y="28" width="2" height="2" />
    <rect x="72" y="28" width="2" height="2" />
    <rect x="76" y="28" width="2" height="2" />

    <!-- строка 4 -->
    <rect x="62" y="30" width="2" height="2" />
    <rect x="70" y="30" width="2" height="2" />
    <rect x="74" y="30" width="2" height="2" />


    <!-- строка 1 -->
    <rect x="0" y="32" width="2" height="2" />
    <rect x="8" y="32" width="2" height="2" />
    <rect x="16" y="32" width="2" height="2" />
    <rect x="24" y="32" width="2" height="2" />
    <rect x="32" y="32" width="2" height="2" />
    <rect x="36" y="32" width="2" height="2" />
    <rect x="40" y="32" width="2" height="2" />
    <rect x="44" y="32" width="2" height="2" />
    <rect x="48" y="32" width="2" height="2" />
    <rect x="52" y="32" width="2" height="2" />
    <rect x="56" y="32" width="2" height="2" />
    <rect x="60" y="32" width="2" height="2" />
    <rect x="64" y="32" width="2" height="2" />
    <rect x="68" y="32" width="2" height="2" />
    <rect x="72" y="32" width="2" height="2" />
    <rect x="76" y="32" width="2" height="2" />

    <!-- строка 2 -->
    <rect x="50" y="34" width="2" height="2" />
    <rect x="58" y="34" width="2" height="2" />
    <rect x="66" y="34" width="2" height="2" />
    <rect x="74" y="34" width="2" height="2" />

    <!-- строка 3 -->
    <rect x="12" y="36" width="2" height="2" />
    <rect x="20" y="36" width="2" height="2" />
    <rect x="24" y="36" width="2" height="2" />
    <rect x="28" y="36" width="2" height="2" />
    <rect x="32" y="36" width="2" height="2" />
    <rect x="36" y="36" width="2" height="2" />
    <rect x="40" y="36" width="2" height="2" />
    <rect x="44" y="36" width="2" height="2" />
    <rect x="48" y="36" width="2" height="2" />
    <rect x="52" y="36" width="2" height="2" />
    <rect x="56" y="36" width="2" height="2" />
    <rect x="60" y="36" width="2" height="2" />
    <rect x="64" y="36" width="2" height="2" />
    <rect x="68" y="36" width="2" height="2" />
    <rect x="72" y="36" width="2" height="2" />
    <rect x="76" y="36" width="2" height="2" />

    <!-- строка 4 -->
    <rect x="62" y="38" width="2" height="2" />
    <rect x="70" y="38" width="2" height="2" />
    <rect x="74" y="38" width="2" height="2" />

    <!-- строка 1 -->
    <rect x="0" y="40" width="2" height="2" />
    <rect x="8" y="40" width="2" height="2" />
    <rect x="16" y="40" width="2" height="2" />
    <rect x="24" y="40" width="2" height="2" />
    <rect x="32" y="40" width="2" height="2" />
    <rect x="36" y="40" width="2" height="2" />
    <rect x="40" y="40" width="2" height="2" />
    <rect x="44" y="40" width="2" height="2" />
    <rect x="48" y="40" width="2" height="2" />
    <rect x="52" y="40" width="2" height="2" />
    <rect x="56" y="40" width="2" height="2" />
    <rect x="60" y="40" width="2" height="2" />
    <rect x="64" y="40" width="2" height="2" />
    <rect x="68" y="40" width="2" height="2" />
    <rect x="72" y="40" width="2" height="2" />
    <rect x="76" y="40" width="2" height="2" />
</svg>