<svg xmlns="http://www.w3.org/2000/svg" width="38" height="37" fill="none"><path d="M36.879 30.097L19.655 1.729 18.624 0 .399 29.824a1.88 1.88 0 0 0-.377.79c-.011.062-.018.124-.022.187v.043a.26.26 0 0 1 0 .034v.118.056a.37.37 0 0 0 .009.091c.005.042.012.083.021.124 0 .025.009.066.015.09.147.545.569 1.073 1.27 1.572l.034.025.096.065.072.049.083.053.103.065.066.04.068.041.112.063.125.08v-.009c1.515.83 3.73 1.499 6.347 1.979l.544.096c3.227.528 6.492.788 9.762.778 2.627.006 5.251-.159 7.857-.494l.127-.018.147-.021.385-.054.42-.063.081-.012c5.077-.794 8.421-2.18 9.223-3.813l.013-.027c.006-.011.011-.021.015-.032l.026-.059.053-.147.009-.027a1.65 1.65 0 0 0-.203-1.391zm-6.103-9.519l5.205 8.576-.13-.096-.022-.016-.077-.053-.075-.052-5.895-9.985.993 1.625zm3.988 7.832l-.021-.01-.258-.124-.122-.057-.164-.074-.114-.05-.945-.37a25.35 25.35 0 0 0-2.139-.641L23.85 11.41l-3.487-7.837L34.764 28.41zm-4.104-1.412l-1.869-.413c-.091-.33-8.425-22.142-8.425-22.142l3.232 7.074c.442 1.049 1.404 3.048 2.284 5.011l4.778 10.47zm-2.106-.442c-.752-.134-1.534-.253-2.34-.355l-.106-.013-.196-.025-.243-.028h-.009l-1.013-.109-.485-2.103L19.2 2.18l9.354 24.376zm-6.297-9.752l2.1 9.192c-1.391-.13-2.837-.215-4.305-.25L18.857 1.886l3.4 14.917zM18.647 3.404l1.126 22.339c-.663-.015-1.326-.018-2.001-.012l.875-22.327zm-1.152 22.332c-1.87.025-3.746.131-5.565.324h-.025l-.326.035-.115.013-.256.029h-.018l7.258-24.718-.953 24.316zm-6.605.442l-.063.007-.174.022 3.583-11.426-3.345 11.397zm-.541.071l-.184.025-.159.022-.295.043-.09.013-.38.059-.053.009-.321.053-.084.015-.286.05-.087.015-.281.052-.063.012L17.496 3.46l-7.148 22.789zm-2.606.426l-.035.007-.308.062-.034.007c-.793.165-1.53.346-2.211.542L17.208 3.419 7.743 26.675zm-2.948.728c-.453.139-.876.286-1.269.442L15.274 6.647 4.796 27.403zM15.393 5.861L3.116 28.009a9.01 9.01 0 0 0-1.931 1.063l14.208-23.21zM1.963 33.012C.812 32.262.246 31.538.277 30.84c0-.021 0-.043.007-.063s0-.032 0-.049a1.63 1.63 0 0 1 .218-.553c.219-.333.497-.623.819-.858.85-.622 2.093-1.132 3.267-1.518l-2.626 5.213zm6.315 2.063l-.794-.158-.053-.01-.939-.214-.063-.016-.884-.23-.069-.019-.404-.118h-.009l-.402-.127-.069-.022-.342-.115-.047-.016c-.124-.043-.246-.087-.365-.133l-.063-.024-.295-.116-.066-.027-.329-.139-.053-.023-.265-.122-.072-.034-.295-.147-.035-.019-.159-.087 2.765-5.475a31.41 31.41 0 0 1 2.557-.671c.615-.127 1.261-.244 1.937-.351l.094-.015.354-.053.112-.016.454-.063.332-.043-2.529 8.602zm8.548.867h-.075l-.553-.019h-.047l-.603-.026h-.035l-.566-.031h-.053l-1.179-.081h-.055l-1.158-.103h-.051l-1.135-.125h-.044l-1.108-.147h-.035l-.533-.081-.541-.088h-.019l-.469-.083 2.553-8.695.147-.019.252-.028.116-.013.323-.035h.012c1.797-.189 3.662-.295 5.528-.321l-.408 9.906-.262-.009zm8.897-.362h-.022l-.951.102h-.063l-.906.08-.091.007-.912.065h-.063l-.973.053h-.025l-.955.037h-.081l-.921.022h-.074l-.974.007h-.589-.105l-.553-.009h-.083l.391-9.945c2.223-.024 4.446.067 6.66.273l2.088 9.21-.802.1.004-.001zm7.895-1.748l-.074.029-.317.119h-.015c-.938.333-1.895.608-2.866.824l-.442.097-.059.013-.401.082-.103.021-.366.071-.147.025-.34.062-.171.029-.32.053-1.186.177-2.085-9.137c1.491.087 5.529.865 6.095 1.007l2.947 6.458-.15.069zm3.191-2.386c-.012.037-.027.074-.041.111s-.021.047-.032.071c-.27.567-.884 1.108-1.804 1.604l-.029.016c-.068.037-.139.074-.209.109l-.077.038-.183.088-.125.058-.147.069-.139.061-2.869-6.258.037.01.211.056.096.027.192.055.11.031.178.053.112.032.174.053.105.034.59.195.113.04.147.053.112.041.147.055.109.043.134.053.116.049.118.05.091.038.193.087.087.04.183.087.08.038a5.46 5.46 0 0 1 .184.094l.066.034.236.128.224.133.025.016c.056.034.109.069.162.105l1.344 2.277c-.018.006-.021.018-.025.029l.005-.001zm-.755-1.879c.466.405.737.822.809 1.239.007.046.012.091.015.139v.015l-.824-1.393z" fill="#fff"/></svg>