<svg xmlns="http://www.w3.org/2000/svg" width="275" height="43" fill="none"><style><![CDATA[.B{stroke:#2d4d80}.C{stroke-width:1.397}.D{mask:url(#A)}.E{fill-rule:evenodd}]]></style><g filter="url(#B)"><mask id="A" fill="#fff"><path d="M227.053 3.567h3.491v3.84h4.539v20.948h-4.888v3.142h1.047v3.491h3.492v5.935h-8.38v-3.491h-3.491v-2.444h-13.267v-3.491h-3.142v-3.84h-4.539V7.407h4.539v-3.84h3.142V.076h17.457v3.491zm-14.315 6.633h-1.746v15.711h1.746v2.444h3.142v-6.633h8.38v2.095h1.745V10.201h-2.444V6.709h-10.823v3.491z" class="E" /><path d="M33.284 7.757H22.112v27.232h-9.776V7.757H.465V.076h32.818v7.681z" /><path d="M48.646 25.213h2.095v2.095h7.332v-2.095h2.444V.076h9.776v28.28h-4.19v3.841h-3.84v2.793H46.9v-2.793h-4.19v-3.841h-3.84V.076h9.776v25.138z" /><path d="M85.654 5.313h4.539v5.586h3.841v4.888h3.142v3.84h1.746V.076h9.426v34.913h-9.426v-4.19H95.43v-3.84h-4.19v-4.888h-3.142v-5.586h-2.444v18.504h-9.427V.076h9.427v5.237z" /><path d="M145.006 7.058h-20.598v7.332h15.71v6.983h-15.71v6.633h20.598v6.983h-30.025V.076h30.025v6.983z" /><path d="M160.019 28.006h20.599v6.983h-30.026V.076h9.427v27.931z" /><path d="M196.329 34.989h-9.427V.076h9.427v34.913z" /><path d="M261.966 7.407h4.189v8.03h2.794v6.284h2.793v6.284h2.793v6.983h-9.427v-6.983h-15.711v6.983h-9.426v-6.983h2.793v-6.284h2.793v-6.284h3.142v-8.03h3.142V.076h10.125v7.332zm-6.634 10.125h-2.793v4.19h9.078v-4.19h-2.095v-5.237h-4.19v5.237z" class="E" /></mask><path d="M227.053 3.567h3.491v3.84h4.539v20.948h-4.888v3.142h1.047v3.491h3.492v5.935h-8.38v-3.491h-3.491v-2.444h-13.267v-3.491h-3.142v-3.84h-4.539V7.407h4.539v-3.84h3.142V.076h17.457v3.491zm-14.315 6.633h-1.746v15.711h1.746v2.444h3.142v-6.633h8.38v2.095h1.745V10.201h-2.444V6.709h-10.823v3.491z" fill="url(#C)" class="E" /><path d="M33.284 7.757H22.112v27.232h-9.776V7.757H.465V.076h32.818v7.681z" fill="url(#C)" /><path d="M48.646 25.213h2.095v2.095h7.332v-2.095h2.444V.076h9.776v28.28h-4.19v3.841h-3.84v2.793H46.9v-2.793h-4.19v-3.841h-3.84V.076h9.776v25.138z" fill="url(#C)" /><path d="M85.654 5.313h4.539v5.586h3.841v4.888h3.142v3.84h1.746V.076h9.426v34.913h-9.426v-4.19H95.43v-3.84h-4.19v-4.888h-3.142v-5.586h-2.444v18.504h-9.427V.076h9.427v5.237z" fill="url(#C)" /><path d="M145.006 7.058h-20.598v7.332h15.71v6.983h-15.71v6.633h20.598v6.983h-30.025V.076h30.025v6.983z" fill="url(#C)" /><path d="M160.019 28.006h20.599v6.983h-30.026V.076h9.427v27.931z" fill="url(#C)" /><path d="M196.329 34.989h-9.427V.076h9.427v34.913z" fill="url(#C)" /><path d="M261.966 7.407h4.189v8.03h2.794v6.284h2.793v6.284h2.793v6.983h-9.427v-6.983h-15.711v6.983h-9.426v-6.983h2.793v-6.284h2.793v-6.284h3.142v-8.03h3.142V.076h10.125v7.332zm-6.634 10.125h-2.793v4.19h9.078v-4.19h-2.095v-5.237h-4.19v5.237z" fill="url(#C)" class="E" /><path d="M227.053 3.567h3.491v3.84h4.539v20.948h-4.888v3.142h1.047v3.491h3.492v5.935h-8.38v-3.491h-3.491v-2.444h-13.267v-3.491h-3.142v-3.84h-4.539V7.407h4.539v-3.84h3.142V.076h17.457v3.491zm-14.315 6.633h-1.746v15.711h1.746v2.444h3.142v-6.633h8.38v2.095h1.745V10.201h-2.444V6.709h-10.823v3.491z" class="B C D" /><path d="M33.284 7.757H22.112v27.232h-9.776V7.757H.465V.076h32.818v7.681z" class="B C D" /><path d="M48.646 25.213h2.095v2.095h7.332v-2.095h2.444V.076h9.776v28.28h-4.19v3.841h-3.84v2.793H46.9v-2.793h-4.19v-3.841h-3.84V.076h9.776v25.138z" class="B C D" /><path d="M85.654 5.313h4.539v5.586h3.841v4.888h3.142v3.84h1.746V.076h9.426v34.913h-9.426v-4.19H95.43v-3.84h-4.19v-4.888h-3.142v-5.586h-2.444v18.504h-9.427V.076h9.427v5.237z" class="B C D" /><path d="M145.006 7.058h-20.598v7.332h15.71v6.983h-15.71v6.633h20.598v6.983h-30.025V.076h30.025v6.983z" class="B C D" /><path d="M160.019 28.006h20.599v6.983h-30.026V.076h9.427v27.931z" class="B C D" /><path d="M196.329 34.989h-9.427V.076h9.427v34.913z" class="B C D" /><path d="M261.966 7.407h4.189v8.03h2.794v6.284h2.793v6.284h2.793v6.983h-9.427v-6.983h-15.711v6.983h-9.426v-6.983h2.793v-6.284h2.793v-6.284h3.142v-8.03h3.142V.076h10.125v7.332zm-6.634 10.125h-2.793v4.19h9.078v-4.19h-2.095v-5.237h-4.19v5.237z" class="B C D" /></g><path d="M260.395 8.804h4.365v7.995h2.967v6.215h2.732v6.389h2.68v4.19h-6.634v-7.157h-18.472v7.157h-6.665v-4.19h2.712v-6.389h2.874v-6.215h3.142V8.804h3.317V1.472h6.982v7.332zm-6.346 7.506h-2.934v6.703h11.899V16.31h-2.095v-5.412h-6.87v5.412zM225.306 4.964h3.841v4.575h4.07v17.122h-3.036-1.907l.175 6.059h1.571v3.317h.812H233v3.703h-5.204v-2.178-1.525h-3.712v-2.223h-12.886v-4.061h-3.174v-3.527h-4.015V9.538h4.015V4.964h3.317V1.298h13.965v3.666zm-13.965 3.84h-1.694v16.332 1.998h2.043v2.618h5.761v-6.633h5.204v1.746h4.924V8.804h-2.273V5.487h-13.965v3.317z" style="mix-blend-mode:plus-darker" fill="#b6e1f4" class="E" /><path d="M194.583 33.418h-5.935V1.821h5.935v31.597zm-36.326-4.225h20.44v4.399h-26.359V1.647h5.919v27.547zM143.086 5.732h-20.66v9.985h16.121v4.26h-16.121v9.357h20.66v4.259h-26.359V1.472h26.359v4.259zM83.711 7.059h2.763 2.338v5.412h4v4.713h2.968v4.87h3.825v2.343h1.062V1.472h5.738v32.295h-5.738v-4.898h-2.125-1.715v-3.655h-4.015v-4.539H89.67V14.89h-2.558-1.913v-3.407h-1.488v21.761h-5.738V1.472h5.738v5.586zM47.35 25.863h1.443v1.445h11.611v-1.445h1.684V1.472h6.734v26.559h-2.886v2.65H63.29v1.927H46.148v-1.927h-2.886v-2.65h-2.646V1.472h6.734v24.39zM31.538 6.158H20.225v27.26h-5.928V6.158H2.037V1.472h29.502v4.685z" fill="#b6e1f4" style="mix-blend-mode:plus-darker" /><defs><filter id="B" x=".465" y=".076" width="274.069" height="42.245" filterUnits="userSpaceOnUse" color-interpolation-filters="sRGB"><feFlood flood-opacity="0" result="A" /><feColorMatrix in="SourceAlpha" values="0 0 0 0 0 0 0 0 0 0 0 0 0 0 0 0 0 0 127 0" result="B" /><feOffset dy="1.39653" /><feComposite in2="B" operator="out" /><feColorMatrix values="0 0 0 0 0.329412 0 0 0 0 0.737255 0 0 0 0 0.835294 0 0 0 1 0" /><feBlend in2="A" /><feBlend in="SourceGraphic" /></filter><linearGradient id="C" x1="119.171" y1=".076" x2="119.345" y2="34.291" gradientUnits="userSpaceOnUse"><stop stop-color="#b6e1f4" /><stop offset=".236" stop-color="#95d6ec" /><stop offset=".49" stop-color="#59c1dc" /><stop offset="1" stop-color="#6c91ca" /></linearGradient></defs></svg>