<?xml version="1.0" encoding="UTF-8"?> <svg xmlns="http://www.w3.org/2000/svg" viewBox="0 0 189 189" fill="none"><path d="M175.236 189H135.65a13.79 13.79 0 0 1-9.733-4.034c-2.583-2.579-4.037-6.077-4.045-9.727v-34.887a12.35 12.35 0 0 0-3.618-8.734c-2.317-2.317-5.46-3.618-8.737-3.618H74.721a13.79 13.79 0 0 1-9.729-4.044c-2.58-2.582-4.031-6.081-4.035-9.731V79.451a12.38 12.38 0 0 0-3.627-8.726c-2.315-2.315-5.454-3.619-8.728-3.626H13.764a13.78 13.78 0 0 1-9.728-4.035C1.455 60.484.004 56.986 0 53.338V13.761c.004-3.648 1.455-7.146 4.035-9.726A13.78 13.78 0 0 1 13.764 0H53.35a13.78 13.78 0 0 1 9.728 4.034c2.58 2.58 4.032 6.078 4.035 9.726v34.831a12.38 12.38 0 0 0 3.632 8.731c2.318 2.315 5.46 3.617 8.737 3.621h34.824a13.79 13.79 0 0 1 13.778 13.761v34.831a12.35 12.35 0 0 0 3.619 8.734c2.317 2.317 5.459 3.618 8.736 3.618h34.796c3.651.008 7.149 1.462 9.729 4.044a13.79 13.79 0 0 1 4.035 9.731v39.577c-.007 3.648-1.46 7.143-4.04 9.722a13.79 13.79 0 0 1-9.724 4.039zM13.764 1.408c-3.277 0-6.419 1.301-8.736 3.618a12.35 12.35 0 0 0-3.619 8.734v39.578a12.35 12.35 0 0 0 3.619 8.734c2.317 2.317 5.459 3.618 8.736 3.618h34.839a13.78 13.78 0 0 1 9.728 4.034c2.58 2.58 4.032 6.078 4.035 9.726v34.831a12.38 12.38 0 0 0 3.622 8.735c2.316 2.318 5.456 3.623 8.733 3.631h34.839c3.649.004 7.148 1.455 9.728 4.034a13.77 13.77 0 0 1 4.035 9.726v34.831a12.38 12.38 0 0 0 3.632 8.731c2.319 2.316 5.46 3.618 8.737 3.622h39.544c3.275-.008 6.413-1.312 8.728-3.627a12.37 12.37 0 0 0 3.627-8.726v-39.577c-.003-3.276-1.306-6.417-3.622-8.735a12.38 12.38 0 0 0-8.733-3.631H140.44a13.78 13.78 0 0 1-9.728-4.035 13.77 13.77 0 0 1-4.036-9.726V74.704c-.007-3.276-1.313-6.416-3.632-8.731s-5.46-3.617-8.737-3.621H79.44c-3.65-.004-7.151-1.454-9.733-4.034s-4.037-6.077-4.044-9.727V13.761a12.35 12.35 0 0 0-3.619-8.734c-2.317-2.316-5.459-3.618-8.736-3.618H13.764z" fill="#fe35fe"></path></svg> 