<?xml version="1.0" encoding="UTF-8"?> <svg xmlns="http://www.w3.org/2000/svg" width="62" height="72" viewBox="0 0 62 72" fill="none"><path fill-rule="evenodd" clip-rule="evenodd" d="M37.3553 62.9461H1.125C0.826633 62.9461 0.540484 62.8275 0.329505 62.6166C0.118527 62.4056 0 62.1194 0 61.8211C0 61.5227 0.118527 61.2365 0.329505 61.0256C0.540484 60.8146 0.826633 60.6961 1.125 60.6961H37.3553C37.6537 60.6961 37.9398 60.8146 38.1508 61.0256C38.3618 61.2365 38.4803 61.5227 38.4803 61.8211C38.4803 62.1194 38.3618 62.4056 38.1508 62.6166C37.9398 62.8275 37.6537 62.9461 37.3553 62.9461ZM21.4588 20.0083H1.125C0.826633 20.0083 0.540484 19.8898 0.329505 19.6788C0.118527 19.4678 0 19.1817 0 18.8833C0 18.5849 0.118527 18.2988 0.329505 18.0878C0.540484 17.8768 0.826633 17.7583 1.125 17.7583H21.4588C21.7572 17.7583 22.0433 17.8768 22.2543 18.0878C22.4653 18.2988 22.5838 18.5849 22.5838 18.8833C22.5838 19.1817 22.4653 19.4678 22.2543 19.6788C22.0433 19.8898 21.7572 20.0083 21.4588 20.0083ZM21.4977 67.4728H16.9824C16.6841 67.4728 16.3979 67.3543 16.1869 67.1433C15.976 66.9323 15.8574 66.6462 15.8574 66.3478C15.8574 66.0495 15.976 65.7633 16.1869 65.5523C16.3979 65.3414 16.6841 65.2228 16.9824 65.2228H21.4977C21.7961 65.2228 22.0822 65.3414 22.2932 65.5523C22.5042 65.7633 22.6227 66.0495 22.6227 66.3478C22.6227 66.6462 22.5042 66.9323 22.2932 67.1433C22.0822 67.3543 21.7961 67.4728 21.4977 67.4728Z" fill="#555555"></path><path fill-rule="evenodd" clip-rule="evenodd" d="M34.6215 71.9998H3.8586C1.73106 71.9998 0 70.2687 0 68.1412V14.446C0 12.3183 1.73106 10.5874 3.8586 10.5874H21.4588C21.7572 10.5874 22.0433 10.7059 22.2543 10.9169C22.4653 11.1279 22.5838 11.414 22.5838 11.7124C22.5838 12.0108 22.4653 12.2969 22.2543 12.5079C22.0433 12.7189 21.7572 12.8374 21.4588 12.8374H3.8586C2.97168 12.8374 2.25 13.5591 2.25 14.446V68.141C2.25 69.0279 2.97168 69.7496 3.8586 69.7496H34.6215C35.5084 69.7496 36.2301 69.0279 36.2301 68.141V27.1788C36.2301 26.8805 36.3487 26.5943 36.5596 26.3833C36.7706 26.1724 37.0568 26.0538 37.3551 26.0538C37.6535 26.0538 37.9396 26.1724 38.1506 26.3833C38.3616 26.5943 38.4801 26.8805 38.4801 27.1788V68.141C38.4801 70.2687 36.7493 71.9998 34.6215 71.9998Z" fill="#555555"></path><path fill-rule="evenodd" clip-rule="evenodd" d="M19.2397 52.223C16.3203 52.223 13.5758 51.0863 11.5115 49.022C9.44727 46.9577 8.31055 44.2132 8.31055 41.2941C8.31055 38.3747 9.44727 35.6302 11.5115 33.5659C13.5758 31.5017 16.3203 30.3647 19.2397 30.3647C22.159 30.3647 24.9035 31.5015 26.9678 33.5659C29.0321 35.6302 30.169 38.3747 30.169 41.2941C30.169 44.2132 29.0323 46.9579 26.9678 49.022C24.9035 51.0863 22.159 52.223 19.2397 52.223ZM19.2397 32.6149C14.4539 32.6149 10.5606 36.5083 10.5606 41.2941C10.5606 46.0798 14.4539 49.9732 19.2397 49.9732C24.0254 49.9732 27.9188 46.0798 27.9188 41.2941C27.9188 36.5083 24.0254 32.6149 19.2397 32.6149Z" fill="#555555"></path><path fill-rule="evenodd" clip-rule="evenodd" d="M20.7162 46.7848H16.6406C16.3423 46.7848 16.0561 46.6662 15.8451 46.4553C15.6342 46.2443 15.5156 45.9581 15.5156 45.6598V41.2939C15.5156 40.9956 15.6342 40.7094 15.8451 40.4984C16.0561 40.2875 16.3423 40.1689 16.6406 40.1689H20.7162C22.5402 40.1689 24.024 41.6529 24.024 43.4768C24.0242 45.3008 22.5402 46.7848 20.7162 46.7848ZM17.7656 44.5346H20.7162C21.2996 44.5346 21.774 44.06 21.774 43.4768C21.774 42.8936 21.2994 42.4189 20.7162 42.4189H17.7656V44.5346Z" fill="#555555"></path><path fill-rule="evenodd" clip-rule="evenodd" d="M20.2539 42.4192H16.6406C16.3423 42.4192 16.0561 42.3007 15.8451 42.0897C15.6342 41.8788 15.5156 41.5926 15.5156 41.2942V36.9282C15.5156 36.6299 15.6342 36.3437 15.8451 36.1327C16.0561 35.9218 16.3423 35.8032 16.6406 35.8032H20.2539C22.0779 35.8032 23.5617 37.2872 23.5617 39.111C23.5619 40.9353 22.0779 42.4192 20.2539 42.4192ZM17.7656 40.1692H20.2539C20.8373 40.1692 21.3117 39.6946 21.3117 39.1112C21.3117 38.5278 20.8371 38.0534 20.2539 38.0534H17.7656V40.1692Z" fill="#555555"></path><path fill-rule="evenodd" clip-rule="evenodd" d="M16.6416 38.0532H15.5811C15.2827 38.0532 14.9965 37.9347 14.7856 37.7237C14.5746 37.5127 14.4561 37.2266 14.4561 36.9282C14.4561 36.6299 14.5746 36.3437 14.7856 36.1327C14.9965 35.9217 15.2827 35.8032 15.5811 35.8032H16.6416C16.94 35.8032 17.2261 35.9217 17.4371 36.1327C17.6481 36.3437 17.7666 36.6299 17.7666 36.9282C17.7666 37.2266 17.6481 37.5127 17.4371 37.7237C17.2261 37.9347 16.94 38.0532 16.6416 38.0532ZM16.6416 46.7849H15.5811C15.2827 46.7849 14.9965 46.6663 14.7856 46.4554C14.5746 46.2444 14.4561 45.9582 14.4561 45.6599C14.4561 45.3615 14.5746 45.0754 14.7856 44.8644C14.9965 44.6534 15.2827 44.5349 15.5811 44.5349H16.6416C16.94 44.5349 17.2261 44.6534 17.4371 44.8644C17.6481 45.0754 17.7666 45.3615 17.7666 45.6599C17.7666 45.9582 17.6481 46.2444 17.4371 46.4554C17.2261 46.6663 16.94 46.7849 16.6416 46.7849Z" fill="#555555"></path><path fill-rule="evenodd" clip-rule="evenodd" d="M17.7549 38.0531C17.4565 38.0531 17.1704 37.9346 16.9594 37.7236C16.7484 37.5126 16.6299 37.2265 16.6299 36.9281V35.7324C16.6299 35.4341 16.7484 35.1479 16.9594 34.9369C17.1704 34.726 17.4565 34.6074 17.7549 34.6074C18.0533 34.6074 18.3394 34.726 18.5504 34.9369C18.7614 35.1479 18.8799 35.4341 18.8799 35.7324V36.9281C18.8799 37.2265 18.7614 37.5126 18.5504 37.7236C18.3394 37.9346 18.0533 38.0531 17.7549 38.0531Z" fill="#555555"></path><path fill-rule="evenodd" clip-rule="evenodd" d="M19.9674 38.0531C19.669 38.0531 19.3829 37.9346 19.1719 37.7236C18.9609 37.5126 18.8424 37.2265 18.8424 36.9281V35.7324C18.8424 35.4341 18.9609 35.1479 19.1719 34.9369C19.3829 34.726 19.669 34.6074 19.9674 34.6074C20.2658 34.6074 20.5519 34.726 20.7629 34.9369C20.9739 35.1479 21.0924 35.4341 21.0924 35.7324V36.9281C21.0924 37.2265 20.9739 37.5126 20.7629 37.7236C20.5519 37.9346 20.2658 38.0531 19.9674 38.0531ZM17.7617 47.9803C17.4634 47.9803 17.1772 47.8618 16.9662 47.6508C16.7552 47.4398 16.6367 47.1537 16.6367 46.8553V45.6596C16.6367 45.3612 16.7552 45.0751 16.9662 44.8641C17.1772 44.6531 17.4634 44.5346 17.7617 44.5346C18.0601 44.5346 18.3462 44.6531 18.5572 44.8641C18.7682 45.0751 18.8867 45.3612 18.8867 45.6596V46.8553C18.8867 47.003 18.8576 47.1493 18.8011 47.2858C18.7445 47.4223 18.6617 47.5463 18.5572 47.6508C18.4527 47.7553 18.3287 47.8381 18.1922 47.8947C18.0557 47.9512 17.9095 47.9803 17.7617 47.9803Z" fill="#555555"></path><path fill-rule="evenodd" clip-rule="evenodd" d="M19.9678 47.9804C19.6694 47.9804 19.3833 47.8618 19.1723 47.6509C18.9613 47.4399 18.8428 47.1537 18.8428 46.8554V45.6597C18.8428 45.3613 18.9613 45.0752 19.1723 44.8642C19.3833 44.6532 19.6694 44.5347 19.9678 44.5347C20.2661 44.5347 20.5523 44.6532 20.7633 44.8642C20.9742 45.0752 21.0928 45.3613 21.0928 45.6597V46.8554C21.0928 47.1537 20.9742 47.4399 20.7633 47.6509C20.5523 47.8618 20.2661 47.9804 19.9678 47.9804Z" fill="#555555"></path><path fill-rule="evenodd" clip-rule="evenodd" d="M58.4629 28.3043H22.9537C21.5092 28.3043 20.334 27.1291 20.334 25.6846V2.61973C20.334 1.1752 21.5092 0 22.9537 0H58.4629C59.9075 0 61.0827 1.1752 61.0827 2.61973V25.6846C61.0827 27.1291 59.9075 28.3043 58.4629 28.3043ZM22.9537 2.2502C22.8557 2.2503 22.7617 2.28929 22.6924 2.3586C22.6231 2.42792 22.5841 2.5219 22.584 2.61993V25.6848C22.584 25.8887 22.7498 26.0545 22.9537 26.0545H58.4629C58.561 26.0544 58.6549 26.0154 58.7243 25.9461C58.7936 25.8768 58.8326 25.7828 58.8327 25.6848V2.61973C58.8326 2.5217 58.7936 2.42772 58.7243 2.35841C58.6549 2.28909 58.561 2.25011 58.4629 2.25L22.9537 2.2502Z" fill="#66BB6A"></path><path fill-rule="evenodd" clip-rule="evenodd" d="M31.4447 12.8654H26.9883C26.6899 12.8654 26.4038 12.7469 26.1928 12.5359C25.9818 12.325 25.8633 12.0388 25.8633 11.7404V7.28418C25.8633 6.98581 25.9818 6.69966 26.1928 6.48869C26.4038 6.27771 26.6899 6.15918 26.9883 6.15918H31.4447C31.7431 6.15918 32.0293 6.27771 32.2402 6.48869C32.4512 6.69966 32.5697 6.98581 32.5697 7.28418V11.7406C32.5697 12.039 32.4511 12.3251 32.2402 12.536C32.0292 12.7469 31.7431 12.8654 31.4447 12.8654ZM28.1135 10.6154H30.3197V8.40899H28.1135V10.6154ZM31.1008 22.1465H26.9885C26.6901 22.1465 26.404 22.028 26.193 21.817C25.982 21.606 25.8635 21.3199 25.8635 21.0215C25.8635 20.7231 25.982 20.437 26.193 20.226C26.404 20.015 26.6901 19.8965 26.9885 19.8965H31.1008C31.3992 19.8965 31.6853 20.015 31.8963 20.226C32.1073 20.437 32.2258 20.7231 32.2258 21.0215C32.2258 21.3199 32.1073 21.606 31.8963 21.817C31.6853 22.028 31.3992 22.1465 31.1008 22.1465ZM38.8766 22.1465H34.7643C34.4659 22.1465 34.1798 22.028 33.9688 21.817C33.7578 21.606 33.6393 21.3199 33.6393 21.0215C33.6393 20.7231 33.7578 20.437 33.9688 20.226C34.1798 20.015 34.4659 19.8965 34.7643 19.8965H38.8766C39.175 19.8965 39.4611 20.015 39.6721 20.226C39.8831 20.437 40.0016 20.7231 40.0016 21.0215C40.0016 21.3199 39.8831 21.606 39.6721 21.817C39.4611 22.028 39.175 22.1465 38.8766 22.1465ZM46.6526 22.1465H42.5403C42.2419 22.1465 41.9557 22.028 41.7448 21.817C41.5338 21.606 41.4153 21.3199 41.4153 21.0215C41.4153 20.7231 41.5338 20.437 41.7448 20.226C41.9557 20.015 42.2419 19.8965 42.5403 19.8965H46.6526C46.9509 19.8965 47.2371 20.015 47.4481 20.226C47.659 20.437 47.7776 20.7231 47.7776 21.0215C47.7776 21.3199 47.659 21.606 47.4481 21.817C47.2371 22.028 46.9509 22.1465 46.6526 22.1465ZM54.4284 22.1465H50.3161C50.0177 22.1465 49.7315 22.028 49.5206 21.817C49.3096 21.606 49.191 21.3199 49.191 21.0215C49.191 20.7231 49.3096 20.437 49.5206 20.226C49.7315 20.015 50.0177 19.8965 50.3161 19.8965H54.4284C54.7267 19.8965 55.0129 20.015 55.2239 20.226C55.4348 20.437 55.5534 20.7231 55.5534 21.0215C55.5534 21.3199 55.4348 21.606 55.2239 21.817C55.0129 22.028 54.7267 22.1465 54.4284 22.1465ZM54.4284 8.40918H51.6993C51.4009 8.40918 51.1147 8.29066 50.9038 8.07968C50.6928 7.8687 50.5743 7.58255 50.5743 7.28418C50.5743 6.98581 50.6928 6.69966 50.9038 6.48869C51.1147 6.27771 51.4009 6.15918 51.6993 6.15918H54.4284C54.7267 6.15918 55.0129 6.27771 55.2239 6.48869C55.4348 6.69966 55.5534 6.98581 55.5534 7.28418C55.5534 7.58255 55.4348 7.8687 55.2239 8.07968C55.0129 8.29066 54.7267 8.40918 54.4284 8.40918Z" fill="#66BB6A"></path></svg> 