<?xml version="1.0" encoding="UTF-8"?> <svg xmlns="http://www.w3.org/2000/svg" width="61" height="66" viewBox="0 0 61 66" fill="none"><path fill-rule="evenodd" clip-rule="evenodd" d="M11.002 12.593C10.828 12.5931 10.657 12.5486 10.5051 12.4638L0.522607 6.89239C0.360665 6.80199 0.22645 6.66913 0.13441 6.50811C0.0423695 6.34709 -0.00400752 6.16402 0.000271466 5.9786C0.00455045 5.79319 0.0593227 5.61245 0.158693 5.45585C0.258063 5.29925 0.398265 5.17273 0.564205 5.08989L10.5471 0.107398C10.6885 0.0367685 10.8444 0 11.0024 0C11.1605 0 11.3164 0.0367685 11.4578 0.107398L21.4401 5.08989C21.6061 5.17273 21.7463 5.29925 21.8456 5.45585C21.945 5.61245 21.9998 5.79319 22.0041 5.9786C22.0083 6.16402 21.962 6.34709 21.8699 6.50811C21.7779 6.66913 21.6437 6.80199 21.4817 6.89239L11.499 12.4638C11.3471 12.5486 11.176 12.593 11.002 12.593ZM3.20166 6.05247L11.002 10.4059L18.8025 6.05247L11.0023 2.15913L3.20166 6.05247Z" fill="#555555"></path><path fill-rule="evenodd" clip-rule="evenodd" d="M11.003 24.2204C10.7326 24.2204 10.4733 24.1129 10.2821 23.9217C10.0909 23.7305 9.98345 23.4712 9.9834 23.2008V11.5737C9.9834 11.3033 10.0908 11.044 10.282 10.8528C10.4732 10.6616 10.7326 10.5541 11.003 10.5541C11.2734 10.5541 11.5327 10.6616 11.7239 10.8528C11.9151 11.044 12.0226 11.3033 12.0226 11.5737V21.523L19.9661 17.3998L19.9659 6.00249C19.9659 5.73208 20.0733 5.47275 20.2645 5.28154C20.4557 5.09033 20.7151 4.98291 20.9855 4.98291C21.2559 4.98291 21.5152 5.09033 21.7064 5.28154C21.8977 5.47275 22.0051 5.73208 22.0051 6.00249L22.0052 18.0194C22.0052 18.2061 21.9539 18.3892 21.857 18.5488C21.76 18.7084 21.6212 18.8383 21.4555 18.9244L11.4728 24.1057C11.3276 24.1811 11.1665 24.2204 11.003 24.2204Z" fill="#555555"></path><path fill-rule="evenodd" clip-rule="evenodd" d="M11.0012 24.2203C10.8379 24.2203 10.6771 24.1809 10.5323 24.1054L0.549794 18.9238C0.384032 18.8378 0.245087 18.7079 0.148131 18.5483C0.0511736 18.3887 -6.75246e-05 18.2055 6.67826e-08 18.0187L0.00017698 6.00185C0.000176991 5.73144 0.107597 5.47211 0.298805 5.2809C0.490014 5.08969 0.749349 4.98227 1.01976 4.98227C1.29017 4.98227 1.5495 5.08969 1.74071 5.2809C1.93192 5.47211 2.03934 5.73144 2.03934 6.00185L2.03916 17.399L11.4719 22.2951C11.5907 22.3568 11.6963 22.4413 11.7824 22.5438C11.8686 22.6462 11.9338 22.7647 11.9742 22.8923C12.0146 23.02 12.0295 23.1543 12.018 23.2877C12.0065 23.4211 11.9688 23.551 11.9071 23.6698C11.8211 23.8358 11.6911 23.975 11.5314 24.0721C11.3716 24.1692 11.1882 24.2204 11.0012 24.2203ZM49.9975 12.593C49.8236 12.5931 49.6525 12.5486 49.5006 12.4638L39.518 6.89239C39.356 6.80199 39.2218 6.66913 39.1298 6.50811C39.0377 6.34709 38.9913 6.16402 38.9956 5.97861C38.9999 5.79319 39.0547 5.61245 39.154 5.45585C39.2534 5.29925 39.3936 5.17273 39.5596 5.08989L49.5424 0.107398C49.6838 0.0367685 49.8397 0 49.9978 0C50.1558 0 50.3117 0.0367685 50.4531 0.107398L60.4355 5.08989C60.6014 5.17273 60.7416 5.29925 60.841 5.45585C60.9404 5.61245 60.9951 5.79319 60.9994 5.97861C61.0037 6.16402 60.9573 6.34709 60.8653 6.50811C60.7732 6.66913 60.639 6.80199 60.4771 6.89239L50.4946 12.4638C50.3426 12.5485 50.1715 12.593 49.9975 12.593ZM42.1972 6.05247L49.9975 10.4059L57.7978 6.05247L49.9977 2.15913L42.1972 6.05247Z" fill="#555555"></path><path fill-rule="evenodd" clip-rule="evenodd" d="M49.9981 24.2204C49.7277 24.2204 49.4684 24.1129 49.2772 23.9217C49.086 23.7305 48.9786 23.4712 48.9785 23.2008V11.5737C48.9785 11.3033 49.0859 11.044 49.2771 10.8528C49.4684 10.6616 49.7277 10.5541 49.9981 10.5541C50.2685 10.5541 50.5278 10.6616 50.7191 10.8528C50.9103 11.044 51.0177 11.3033 51.0177 11.5737V21.523L58.961 17.3998L58.9609 6.00249C58.9609 5.73208 59.0683 5.47275 59.2595 5.28154C59.4507 5.09033 59.71 4.98291 59.9804 4.98291C60.2508 4.98291 60.5102 5.09033 60.7014 5.28154C60.8926 5.47275 61 5.73208 61 6.00249L61.0002 18.0194C61.0002 18.2061 60.9489 18.3892 60.8519 18.5488C60.755 18.7084 60.6161 18.8383 60.4504 18.9244L50.4679 24.1061C50.3227 24.1812 50.1616 24.2204 49.9981 24.2204Z" fill="#555555"></path><path fill-rule="evenodd" clip-rule="evenodd" d="M49.9967 24.2205C49.8335 24.2204 49.6726 24.181 49.5278 24.1056L39.5453 18.924C39.3796 18.838 39.2406 18.7081 39.1437 18.5485C39.0467 18.3889 38.9955 18.2058 38.9955 18.0191L38.996 6.00289C39.001 5.73577 39.1105 5.48125 39.3012 5.29407C39.4918 5.10689 39.7483 5.002 40.0155 5.00195C40.2826 5.00191 40.5391 5.10671 40.7298 5.29382C40.9205 5.48094 41.0302 5.73542 41.0352 6.00254L41.0347 17.3997L50.4674 22.296C50.6701 22.4013 50.8316 22.5715 50.926 22.7795C51.0204 22.9875 51.0422 23.2212 50.988 23.4431C50.9337 23.665 50.8065 23.8622 50.6268 24.0032C50.447 24.1441 50.2251 24.2206 49.9967 24.2205ZM11.0024 53.6262C10.8284 53.6262 10.6574 53.5817 10.5055 53.4969L0.522977 47.9255C0.360939 47.8352 0.226628 47.7023 0.134518 47.5413C0.0424074 47.3803 -0.00400851 47.1971 0.000271367 47.0117C0.00455124 46.8262 0.0593643 46.6454 0.158805 46.4888C0.258245 46.3322 0.398542 46.2056 0.564575 46.1229L10.5474 41.1404C10.6888 41.0697 10.8447 41.033 11.0028 41.033C11.1609 41.033 11.3168 41.0697 11.4582 41.1404L21.4405 46.1229C21.6064 46.2057 21.7466 46.3322 21.846 46.4888C21.9454 46.6454 22.0001 46.8262 22.0044 47.0116C22.0087 47.197 21.9623 47.3801 21.8703 47.5411C21.7782 47.7021 21.644 47.835 21.4821 47.9254L11.4994 53.4968C11.3475 53.5817 11.1764 53.6262 11.0024 53.6262ZM3.20203 47.0856L11.0024 51.4392L18.8029 47.0856L11.0027 43.1923L3.20203 47.0856Z" fill="#555555"></path><path fill-rule="evenodd" clip-rule="evenodd" d="M11.003 65.2536C10.7326 65.2535 10.4733 65.1461 10.2821 64.9549C10.0909 64.7637 9.98349 64.5044 9.9834 64.234V52.6069C9.9834 52.3365 10.0908 52.0772 10.282 51.886C10.4732 51.6948 10.7326 51.5873 11.003 51.5873C11.2734 51.5873 11.5327 51.6948 11.7239 51.886C11.9151 52.0772 12.0226 52.3365 12.0226 52.6069V62.5562L19.9661 58.4331L19.9659 47.0357C19.9659 46.7653 20.0733 46.506 20.2645 46.3147C20.4557 46.1235 20.7151 46.0161 20.9855 46.0161C21.2559 46.0161 21.5152 46.1235 21.7064 46.3147C21.8977 46.506 22.0051 46.7653 22.0051 47.0357L22.0052 59.0526C22.0052 59.2393 21.954 59.4224 21.857 59.582C21.7601 59.7416 21.6212 59.8714 21.4555 59.9575L11.4728 65.1389C11.3276 65.2142 11.1665 65.2535 11.003 65.2536Z" fill="#555555"></path><path fill-rule="evenodd" clip-rule="evenodd" d="M11.0012 65.2532C10.8379 65.2531 10.6771 65.2137 10.5323 65.1383L0.549794 59.9567C0.384057 59.8706 0.245134 59.7407 0.148182 59.5811C0.0512292 59.4215 -2.81585e-05 59.2384 1.1605e-08 59.0516L0.000176925 47.0347C0.000176936 46.7643 0.107597 46.505 0.298805 46.3138C0.490014 46.1226 0.749348 46.0152 1.01976 46.0152C1.29017 46.0152 1.5495 46.1226 1.74071 46.3138C1.93192 46.505 2.03934 46.7643 2.03934 47.0347L2.03916 58.4321L11.4719 63.3282C11.6749 63.4333 11.8367 63.6036 11.9313 63.8117C12.0259 64.0198 12.0478 64.2537 11.9935 64.4758C11.9392 64.6978 11.8118 64.8952 11.6319 65.0362C11.4519 65.1772 11.2298 65.2536 11.0012 65.2532ZM49.9975 53.6259C49.8236 53.626 49.6525 53.5815 49.5006 53.4967L39.518 47.9253C39.3559 47.8349 39.2216 47.7021 39.1295 47.541C39.0374 47.38 38.991 47.1969 38.9953 47.0114C38.9995 46.8259 39.0543 46.6451 39.1538 46.4885C39.2532 46.3319 39.3935 46.2054 39.5596 46.1226L49.5424 41.1401C49.6838 41.0695 49.8397 41.0327 49.9978 41.0327C50.1558 41.0327 50.3117 41.0695 50.4531 41.1401L60.4355 46.1226C60.6015 46.2054 60.7417 46.332 60.8411 46.4886C60.9405 46.6452 60.9953 46.826 60.9996 47.0114C61.0038 47.1969 60.9575 47.38 60.8654 47.541C60.7733 47.702 60.6391 47.8349 60.4771 47.9253L50.4946 53.4967C50.3426 53.5814 50.1715 53.6259 49.9975 53.6259ZM42.1972 47.0854L49.9975 51.4389L57.7978 47.0854L49.9977 43.192L42.1972 47.0854Z" fill="#555555"></path><path fill-rule="evenodd" clip-rule="evenodd" d="M49.9981 65.2536C49.7277 65.2535 49.4684 65.1461 49.2772 64.9549C49.0861 64.7637 48.9786 64.5044 48.9785 64.234V52.6069C48.9785 52.3365 49.0859 52.0772 49.2771 51.886C49.4684 51.6948 49.7277 51.5873 49.9981 51.5873C50.2685 51.5873 50.5278 51.6948 50.7191 51.886C50.9103 52.0772 51.0177 52.3365 51.0177 52.6069V62.5562L58.961 58.4331L58.9609 47.0357C58.9609 46.7653 59.0683 46.506 59.2595 46.3147C59.4507 46.1235 59.71 46.0161 59.9804 46.0161C60.2508 46.0161 60.5102 46.1235 60.7014 46.3147C60.8926 46.506 61 46.7653 61 47.0357L61.0002 59.0526C61.0002 59.2393 60.9489 59.4224 60.852 59.582C60.755 59.7416 60.6161 59.8714 60.4504 59.9575L50.4679 65.1391C50.3227 65.2143 50.1616 65.2535 49.9981 65.2536Z" fill="#555555"></path><path fill-rule="evenodd" clip-rule="evenodd" d="M49.9965 65.2537C49.8332 65.2536 49.6724 65.2142 49.5276 65.1388L39.5449 59.9571C39.3792 59.8711 39.2403 59.7412 39.1433 59.5816C39.0464 59.422 38.9951 59.2388 38.9951 59.0521L38.9953 47.0352C38.9953 46.7648 39.1027 46.5055 39.2939 46.3142C39.4851 46.123 39.7445 46.0156 40.0149 46.0156C40.2853 46.0156 40.5446 46.123 40.7358 46.3142C40.927 46.5055 41.0345 46.7648 41.0345 47.0352L41.0343 58.4326L50.467 63.3287C50.67 63.4338 50.8318 63.604 50.9264 63.8121C51.021 64.0202 51.0429 64.2541 50.9886 64.4762C50.9343 64.6982 50.807 64.8956 50.6271 65.0366C50.4472 65.1776 50.2251 65.254 49.9965 65.2537Z" fill="#555555"></path><path fill-rule="evenodd" clip-rule="evenodd" d="M34.3089 13.2989H26.6928C26.4224 13.2989 26.1631 13.1915 25.9719 13.0003C25.7807 12.8091 25.6733 12.5498 25.6733 12.2793C25.6733 12.0089 25.7807 11.7496 25.9719 11.5584C26.1631 11.3672 26.4224 11.2598 26.6928 11.2598H34.3089C34.5793 11.2598 34.8386 11.3672 35.0298 11.5584C35.2211 11.7496 35.3285 12.0089 35.3285 12.2793C35.3285 12.5498 35.2211 12.8091 35.0298 13.0003C34.8386 13.1915 34.5793 13.2989 34.3089 13.2989ZM34.3089 54.4185H26.6928C26.4224 54.4185 26.1631 54.3111 25.9719 54.1199C25.7807 53.9286 25.6733 53.6693 25.6733 53.3989C25.6733 53.1285 25.7807 52.8692 25.9719 52.6779C26.1631 52.4867 26.4224 52.3793 26.6928 52.3793H34.3089C34.5793 52.3793 34.8386 52.4867 35.0298 52.6779C35.2211 52.8692 35.3285 53.1285 35.3285 53.3989C35.3285 53.6693 35.2211 53.9286 35.0298 54.1199C34.8386 54.3111 34.5793 54.4185 34.3089 54.4185ZM49.9986 37.4543C49.7282 37.4543 49.4688 37.3469 49.2776 37.1557C49.0864 36.9645 48.979 36.7052 48.979 36.4347V28.8187C48.979 28.5483 49.0864 28.2889 49.2776 28.0977C49.4688 27.9065 49.7282 27.7991 49.9986 27.7991C50.269 27.7991 50.5283 27.9065 50.7195 28.0977C50.9107 28.2889 51.0182 28.5483 51.0182 28.8187V36.4347C51.0182 36.7052 50.9107 36.9645 50.7195 37.1557C50.5283 37.3469 50.269 37.4543 49.9986 37.4543ZM11.003 37.4543C10.7326 37.4543 10.4732 37.3469 10.282 37.1557C10.0908 36.9645 9.9834 36.7052 9.9834 36.4347V28.8187C9.9834 28.5483 10.0908 28.2889 10.282 28.0977C10.4732 27.9065 10.7326 27.7991 11.003 27.7991C11.2734 27.7991 11.5327 27.9065 11.7239 28.0977C11.9151 28.2889 12.0226 28.5483 12.0226 28.8187V36.4347C12.0226 36.7052 11.9151 36.9645 11.7239 37.1557C11.5327 37.3469 11.2734 37.4543 11.003 37.4543Z" fill="#66BB6A"></path></svg> 