<?xml version="1.0" encoding="UTF-8"?> <svg xmlns="http://www.w3.org/2000/svg" width="57" height="63" viewBox="0 0 57 63" fill="none"><path fill-rule="evenodd" clip-rule="evenodd" d="M24.3005 57.6299C24.1523 57.63 24.006 57.5962 23.8729 57.5309C23.7398 57.4656 23.6234 57.3707 23.5327 57.2534C23.442 57.1361 23.3794 56.9996 23.3497 56.8544C23.32 56.7092 23.324 56.559 23.3614 56.4156L24.8416 50.7328C24.9064 50.4839 25.0675 50.271 25.2893 50.1408C25.5111 50.0107 25.7756 49.974 26.0245 50.0388C26.2734 50.1036 26.4863 50.2647 26.6164 50.4865C26.7466 50.7083 26.7833 50.9728 26.7184 51.2217L25.2383 56.9045C25.1841 57.112 25.0627 57.2958 24.8931 57.4271C24.7234 57.5583 24.515 57.6297 24.3005 57.6299ZM32.6972 57.6299C32.4827 57.6297 32.2743 57.5584 32.1046 57.4271C31.9349 57.2958 31.8135 57.1119 31.7595 56.9043L30.2793 51.2215C30.2472 51.0983 30.2397 50.9699 30.2572 50.8438C30.2747 50.7176 30.3169 50.5962 30.3813 50.4863C30.4457 50.3765 30.5312 50.2804 30.6328 50.2036C30.7343 50.1268 30.85 50.0707 30.9733 50.0386C31.2221 49.9738 31.4866 50.0105 31.7084 50.1406C31.8183 50.2051 31.9143 50.2905 31.9911 50.3921C32.068 50.4937 32.124 50.6094 32.1561 50.7326L33.6363 56.4154C33.6737 56.5589 33.6778 56.709 33.6481 56.8543C33.6184 56.9996 33.5558 57.1361 33.4651 57.2534C33.3744 57.3707 33.258 57.4656 33.1249 57.5309C32.9918 57.5962 32.8455 57.63 32.6972 57.6299Z" fill="#555555"></path><path fill-rule="evenodd" clip-rule="evenodd" d="M40.1263 62.062H16.8737C16.6165 62.062 16.3698 61.9598 16.188 61.7779C16.0061 61.5961 15.904 61.3494 15.904 61.0922C15.904 58.1134 18.3274 55.6901 21.3061 55.6901H35.694C38.6729 55.6901 41.0962 58.1135 41.0962 61.0922C41.0961 61.3494 40.9939 61.5961 40.812 61.7779C40.6301 61.9597 40.3835 62.0619 40.1263 62.062ZM17.9816 60.1225H39.0185C38.5982 58.6836 37.2668 57.6295 35.694 57.6295H21.3063C19.7332 57.6293 18.4018 58.6836 17.9816 60.1225ZM54.5503 51.9467H2.45007C1.09902 51.9467 0 50.8479 0 49.497V14.5225C0 13.1718 1.09902 12.0729 2.45007 12.0729H6.56246C6.81965 12.0729 7.0663 12.1751 7.24816 12.3569C7.43002 12.5388 7.53219 12.7855 7.53219 13.0426C7.53219 13.2998 7.43002 13.5465 7.24816 13.7283C7.0663 13.9102 6.81965 14.0124 6.56246 14.0124H2.45007C2.31473 14.0125 2.18495 14.0662 2.08922 14.1619C1.99349 14.2576 1.93962 14.3873 1.93945 14.5227V49.4971C1.93967 49.6325 1.99355 49.7622 2.08927 49.8578C2.18499 49.9535 2.31474 50.0073 2.45007 50.0074H54.5503C54.6856 50.0073 54.8153 49.9535 54.9109 49.8578C55.0066 49.7622 55.0604 49.6324 55.0606 49.4971V14.5225C55.0604 14.3872 55.0066 14.2575 54.9109 14.1618C54.8153 14.0661 54.6856 14.0123 54.5503 14.0122H50.4374C50.1802 14.0122 49.9335 13.91 49.7517 13.7282C49.5698 13.5463 49.4676 13.2997 49.4676 13.0425C49.4676 12.7853 49.5698 12.5386 49.7517 12.3568C49.9335 12.1749 50.1802 12.0728 50.4374 12.0728H54.5503C55.901 12.0728 57 13.1716 57 14.5225V49.497C56.9998 50.8477 55.901 51.9467 54.5503 51.9467Z" fill="#555555"></path><path fill-rule="evenodd" clip-rule="evenodd" d="M56.0303 45.959H0.969723C0.712537 45.959 0.465884 45.8568 0.284025 45.6749C0.102167 45.4931 0 45.2464 0 44.9892C0 44.7321 0.102167 44.4854 0.284025 44.3036C0.465884 44.1217 0.712537 44.0195 0.969723 44.0195H56.0303C56.2875 44.0195 56.5341 44.1217 56.716 44.3036C56.8978 44.4854 57 44.7321 57 44.9892C57 45.2464 56.8978 45.4931 56.716 45.6749C56.5341 45.8568 56.2875 45.959 56.0303 45.959ZM48.6681 39.5399H8.33187C6.82156 39.5399 5.59308 38.3113 5.59308 36.8012V2.73879C5.59308 1.22865 6.82173 0 8.33187 0H48.6683C50.1786 0 51.4071 1.22865 51.4071 2.73879V36.8012C51.4071 38.3115 50.1784 39.5399 48.6681 39.5399ZM8.33187 1.93945C8.11994 1.93967 7.91675 2.02396 7.76689 2.17382C7.61703 2.32367 7.53275 2.52686 7.53252 2.73879V36.8012C7.53275 37.0131 7.61703 37.2163 7.76689 37.3661C7.91675 37.516 8.11994 37.6003 8.33187 37.6005H48.6681C48.8801 37.6003 49.0833 37.516 49.2331 37.3661C49.383 37.2163 49.4673 37.0131 49.4675 36.8012V2.73879C49.4673 2.52686 49.383 2.32367 49.2331 2.17382C49.0833 2.02396 48.8801 1.93967 48.6681 1.93945H8.33187Z" fill="#555555"></path><path fill-rule="evenodd" clip-rule="evenodd" d="M50.4372 9.31459H6.5625C6.30531 9.31459 6.05866 9.21242 5.8768 9.03056C5.69494 8.8487 5.59277 8.60205 5.59277 8.34486C5.59277 8.08768 5.69494 7.84102 5.8768 7.65917C6.05866 7.47731 6.30531 7.37514 6.5625 7.37514H50.4371C50.6943 7.37512 50.9409 7.47726 51.1228 7.65911C51.3047 7.84095 51.4068 8.08759 51.4069 8.34478C51.4069 8.60197 51.3047 8.84863 51.1229 9.0305C50.9411 9.21238 50.6944 9.31456 50.4372 9.31459ZM46.4531 5.62695H28.8503C28.5931 5.62695 28.3465 5.52478 28.1646 5.34292C27.9827 5.16106 27.8806 4.91441 27.8806 4.65722C27.8806 4.40004 27.9827 4.15338 28.1646 3.97153C28.3465 3.78967 28.5931 3.6875 28.8503 3.6875H46.4531C46.7103 3.6875 46.957 3.78967 47.1388 3.97153C47.3207 4.15338 47.4228 4.40004 47.4228 4.65722C47.4228 4.91441 47.3207 5.16106 47.1388 5.34292C46.957 5.52478 46.7103 5.62695 46.4531 5.62695Z" fill="#555555"></path><path fill-rule="evenodd" clip-rule="evenodd" d="M12.0766 4.65745C12.0766 4.14396 11.6577 3.7251 11.1443 3.7251C10.6308 3.7251 10.2119 4.14396 10.2119 4.65745C10.2119 5.17093 10.6308 5.58979 11.1443 5.58979C11.3914 5.58935 11.6283 5.49098 11.803 5.31622C11.9778 5.14147 12.0762 4.90458 12.0766 4.65745Z" fill="#555555"></path><path fill-rule="evenodd" clip-rule="evenodd" d="M11.143 5.60969C10.6177 5.60969 10.1904 5.18241 10.1904 4.65714C10.1904 4.13187 10.6177 3.70459 11.143 3.70459C11.6682 3.70459 12.0955 4.13187 12.0955 4.65714C12.0955 5.18241 11.6682 5.60969 11.143 5.60969ZM11.143 3.74499C10.6401 3.74499 10.2308 4.1541 10.2308 4.65714C10.2308 5.16018 10.6399 5.56929 11.143 5.56929C11.646 5.56929 12.0551 5.16018 12.0551 4.65714C12.0551 4.1541 11.646 3.74499 11.143 3.74499ZM15.9773 4.65714C15.9773 4.14366 15.5584 3.72479 15.0449 3.72479C14.5315 3.72479 14.1126 4.14366 14.1126 4.65714C14.1126 5.17062 14.5315 5.58949 15.0449 5.58949C15.5584 5.58949 15.9773 5.17062 15.9773 4.65714Z" fill="#555555"></path><path fill-rule="evenodd" clip-rule="evenodd" d="M15.0443 5.60969C14.5191 5.60969 14.0918 5.18241 14.0918 4.65714C14.0918 4.13187 14.5191 3.70459 15.0443 3.70459C15.5696 3.70459 15.9969 4.13187 15.9969 4.65714C15.9969 5.18241 15.5696 5.60969 15.0443 5.60969ZM15.0443 3.74499C14.5415 3.74499 14.1322 4.1541 14.1322 4.65714C14.1322 5.16018 14.5413 5.56929 15.0443 5.56929C15.5474 5.56929 15.9565 5.16018 15.9565 4.65714C15.9565 4.1541 15.5474 3.74499 15.0443 3.74499ZM19.8787 4.65714C19.8787 4.14366 19.4598 3.72479 18.9463 3.72479C18.4328 3.72479 18.014 4.14366 18.014 4.65714C18.014 5.17062 18.4328 5.58949 18.9463 5.58949C19.4598 5.58949 19.8787 5.17062 19.8787 4.65714Z" fill="#555555"></path><path fill-rule="evenodd" clip-rule="evenodd" d="M18.9477 5.60969C18.4224 5.60969 17.9951 5.18241 17.9951 4.65714C17.9951 4.13187 18.4224 3.70459 18.9477 3.70459C19.4729 3.70459 19.9002 4.13187 19.9002 4.65714C19.9002 5.18241 19.4729 5.60969 18.9477 5.60969ZM18.9477 3.74499C18.4448 3.74499 18.0355 4.1541 18.0355 4.65714C18.0355 5.16018 18.4448 5.56929 18.9477 5.56929C19.4507 5.56929 19.8598 5.16018 19.8598 4.65714C19.8598 4.1541 19.4507 3.74499 18.9477 3.74499Z" fill="#555555"></path><path fill-rule="evenodd" clip-rule="evenodd" d="M24.291 19.8465C24.0785 19.8467 23.8718 19.7767 23.7031 19.6473L20.449 17.1617C20.3305 17.0712 20.2345 16.9546 20.1685 16.821C20.1024 16.6873 20.068 16.5403 20.068 16.3912C20.068 16.2421 20.1024 16.095 20.1685 15.9614C20.2345 15.8277 20.3305 15.7111 20.449 15.6206L23.7031 13.135C23.9075 12.9789 24.1655 12.9104 24.4205 12.9445C24.6754 12.9786 24.9063 13.1126 25.0624 13.317C25.2185 13.5214 25.2871 13.7795 25.2529 14.0344C25.2188 14.2893 25.0848 14.5202 24.8804 14.6763L22.6352 16.3912L24.8804 18.106C25.0417 18.2292 25.1603 18.3998 25.2195 18.5938C25.2786 18.7879 25.2755 18.9957 25.2104 19.1878C25.1453 19.38 25.0216 19.5469 24.8567 19.6651C24.6917 19.7832 24.4939 19.8467 24.291 19.8465ZM32.7077 19.8465C32.5048 19.8467 32.307 19.7832 32.1421 19.6651C31.9771 19.5469 31.8534 19.38 31.7884 19.1878C31.7233 18.9957 31.7201 18.7879 31.7793 18.5938C31.8385 18.3998 31.9571 18.2292 32.1183 18.106L34.3635 16.3912L32.1183 14.6763C31.9139 14.5202 31.7799 14.2893 31.7458 14.0344C31.7117 13.7795 31.7802 13.5214 31.9363 13.317C32.0925 13.1126 32.3234 12.9786 32.5783 12.9445C32.8332 12.9104 33.0912 12.9789 33.2956 13.135L36.5498 15.6206C36.6682 15.7111 36.7642 15.8277 36.8303 15.9614C36.8964 16.095 36.9308 16.2421 36.9308 16.3912C36.9308 16.5403 36.8964 16.6873 36.8303 16.821C36.7642 16.9546 36.6682 17.0712 36.5498 17.1617L33.2956 19.6472C33.127 19.7766 32.9203 19.8467 32.7077 19.8465ZM27.4366 21.1662C27.2869 21.1663 27.1392 21.1317 27.0051 21.0652C26.871 20.9987 26.7541 20.902 26.6636 20.7828C26.5731 20.6636 26.5115 20.525 26.4835 20.378C26.4554 20.2309 26.4619 20.0794 26.5022 19.9352L28.629 12.3249C28.6633 12.2023 28.7214 12.0876 28.8 11.9874C28.8786 11.8872 28.9762 11.8035 29.0871 11.741C29.1981 11.6785 29.3203 11.6385 29.4467 11.6232C29.5731 11.6079 29.7013 11.6177 29.824 11.652C29.9466 11.6863 30.0613 11.7444 30.1615 11.823C30.2617 11.9016 30.3455 11.9992 30.4079 12.1101C30.4704 12.2211 30.5104 12.3433 30.5257 12.4697C30.541 12.5961 30.5312 12.7243 30.4969 12.847L28.3701 20.4573C28.3131 20.6611 28.191 20.8407 28.0225 20.9686C27.8539 21.0966 27.6482 21.166 27.4366 21.1662ZM21.4975 25.8339H12.5352C12.278 25.8339 12.0313 25.7317 11.8495 25.5498C11.6676 25.368 11.5654 25.1213 11.5654 24.8641C11.5654 24.607 11.6676 24.3603 11.8495 24.1784C12.0313 23.9966 12.278 23.8944 12.5352 23.8944H21.4975C21.7547 23.8944 22.0013 23.9966 22.1832 24.1784C22.3651 24.3603 22.4672 24.607 22.4672 24.8641C22.4672 25.1213 22.3651 25.368 22.1832 25.5498C22.0013 25.7317 21.7547 25.8339 21.4975 25.8339ZM44.4638 25.8339H25.5003C25.2431 25.8339 24.9965 25.7317 24.8146 25.5498C24.6328 25.368 24.5306 25.1213 24.5306 24.8641C24.5306 24.607 24.6328 24.3603 24.8146 24.1784C24.9965 23.9966 25.2431 23.8944 25.5003 23.8944H44.4638C44.721 23.8944 44.9676 23.9966 45.1495 24.1784C45.3313 24.3603 45.4335 24.607 45.4335 24.8641C45.4335 25.1213 45.3313 25.368 45.1495 25.5498C44.9676 25.7317 44.721 25.8339 44.4638 25.8339ZM34.7073 30.1003H12.5352C12.278 30.1003 12.0313 29.9981 11.8495 29.8163C11.6676 29.6344 11.5654 29.3878 11.5654 29.1306C11.5654 28.8734 11.6676 28.6267 11.8495 28.4449C12.0313 28.263 12.278 28.1609 12.5352 28.1609H34.7073C34.9645 28.1609 35.2111 28.263 35.393 28.4449C35.5748 28.6267 35.677 28.8734 35.677 29.1306C35.677 29.3878 35.5748 29.6344 35.393 29.8163C35.2111 29.9981 34.9645 30.1003 34.7073 30.1003ZM44.4638 30.1003H38.7101C38.4529 30.1003 38.2062 29.9981 38.0244 29.8163C37.8425 29.6344 37.7404 29.3878 37.7404 29.1306C37.7404 28.8734 37.8425 28.6267 38.0244 28.4449C38.2062 28.263 38.4529 28.1609 38.7101 28.1609H44.4638C44.721 28.1609 44.9676 28.263 45.1495 28.4449C45.3313 28.6267 45.4335 28.8734 45.4335 29.1306C45.4335 29.3878 45.3313 29.6344 45.1495 29.8163C44.9676 29.9981 44.721 30.1003 44.4638 30.1003ZM16.8102 34.3667H12.5352C12.278 34.3667 12.0313 34.2646 11.8495 34.0827C11.6676 33.9009 11.5654 33.6542 11.5654 33.397C11.5654 33.1398 11.6676 32.8932 11.8495 32.7113C12.0313 32.5295 12.278 32.4273 12.5352 32.4273H16.8102C17.0674 32.4273 17.314 32.5295 17.4959 32.7113C17.6777 32.8932 17.7799 33.1398 17.7799 33.397C17.7799 33.6542 17.6777 33.9009 17.4959 34.0827C17.314 34.2646 17.0674 34.3667 16.8102 34.3667ZM44.4638 34.3667H20.813C20.5558 34.3667 20.3091 34.2646 20.1273 34.0827C19.9454 33.9009 19.8433 33.6542 19.8433 33.397C19.8433 33.1398 19.9454 32.8932 20.1273 32.7113C20.3091 32.5295 20.5558 32.4273 20.813 32.4273H44.4638C44.721 32.4273 44.9676 32.5295 45.1495 32.7113C45.3313 32.8932 45.4335 33.1398 45.4335 33.397C45.4335 33.6542 45.3313 33.9009 45.1495 34.0827C44.9676 34.2646 44.721 34.3667 44.4638 34.3667Z" fill="#66BB6A"></path></svg> 