<?xml version="1.0" encoding="UTF-8"?> <svg xmlns="http://www.w3.org/2000/svg" width="47" height="60" viewBox="0 0 47 60" fill="none"><path fill-rule="evenodd" clip-rule="evenodd" d="M45.3958 10.4779H36.7911C36.5427 10.4779 36.3045 10.3792 36.1288 10.2036C35.9532 10.0279 35.8545 9.7897 35.8545 9.5413V0.936586C35.8545 0.688188 35.9532 0.449963 36.1288 0.27432C36.3045 0.0986757 36.5427 0 36.7911 0C37.0395 0 37.2777 0.0986757 37.4533 0.27432C37.629 0.449963 37.7277 0.688188 37.7277 0.936586V8.60488H45.3958C45.642 8.60812 45.8771 8.70822 46.0501 8.88349C46.223 9.05877 46.32 9.29512 46.32 9.54138C46.32 9.78764 46.223 10.024 46.0501 10.1993C45.8771 10.3745 45.642 10.4746 45.3958 10.4779Z" fill="#555555"></path><path fill-rule="evenodd" clip-rule="evenodd" d="M45.3961 59.9415H0.936584C0.688187 59.9415 0.449963 59.8428 0.27432 59.6671C0.0986757 59.4915 0 59.2533 0 59.0049V0.936586C0 0.688188 0.0986757 0.449963 0.27432 0.274319C0.449963 0.0986757 0.688187 0 0.936584 0L36.7746 0.000325645H36.7751C36.9008 -0.00176366 37.0256 0.0214115 37.1422 0.068476C37.2587 0.115541 37.3647 0.185536 37.4537 0.27431L46.0584 8.87902C46.1472 8.96766 46.2173 9.0733 46.2644 9.18963C46.3115 9.30597 46.3347 9.43061 46.3325 9.5561V59.0049C46.3325 59.1279 46.3083 59.2496 46.2613 59.3633C46.2142 59.4769 46.1453 59.5802 46.0583 59.6671C45.9714 59.7541 45.8681 59.8231 45.7545 59.8702C45.6409 59.9172 45.5191 59.9415 45.3961 59.9415ZM1.87317 58.0683H44.4595V9.9291L36.4037 1.8735L1.87317 1.87317V58.0683Z" fill="#555555"></path><path fill-rule="evenodd" clip-rule="evenodd" d="M16.8366 14.8255C16.5882 14.8255 16.35 14.7269 16.1743 14.5512C15.9987 14.3756 15.9 14.1374 15.9 13.889V9.32749C15.7 9.41357 15.4762 9.42727 15.2671 9.36625C15.0581 9.30522 14.8768 9.17328 14.7545 8.9931C14.6322 8.81291 14.5765 8.59575 14.5969 8.37893C14.6174 8.16212 14.7127 7.9592 14.8665 7.80505L16.1743 6.49725C16.3053 6.36634 16.4722 6.2772 16.6539 6.24111C16.8355 6.20501 17.0238 6.22358 17.1949 6.29445C17.366 6.36533 17.5123 6.48534 17.6152 6.63931C17.7181 6.79328 17.7731 6.97431 17.7732 7.15952V13.889C17.7732 14.1374 17.6745 14.3756 17.4989 14.5512C17.3232 14.7269 17.085 14.8255 16.8366 14.8255Z" fill="#555555"></path><path fill-rule="evenodd" clip-rule="evenodd" d="M16.1824 27.7901C14.5633 27.7901 13.2461 26.4729 13.2461 24.8538V22.1238C13.2461 20.5047 14.5633 19.1875 16.1824 19.1875C17.8014 19.1875 19.1186 20.5047 19.1186 22.1238V24.8538C19.1185 26.4729 17.8014 27.7901 16.1824 27.7901ZM16.1824 21.0607C15.9005 21.061 15.6303 21.1731 15.431 21.3724C15.2317 21.5717 15.1196 21.8419 15.1193 22.1238V24.8538C15.1193 25.44 15.5962 25.9169 16.1824 25.9169C16.7685 25.9169 17.2454 25.44 17.2454 24.8538V22.1238C17.2451 21.8419 17.133 21.5717 16.9337 21.3724C16.7344 21.1731 16.4642 21.061 16.1824 21.0607Z" fill="#66BB6A"></path><path fill-rule="evenodd" clip-rule="evenodd" d="M16.8366 40.754C16.5882 40.754 16.35 40.6553 16.1743 40.4797C15.9987 40.304 15.9 40.0658 15.9 39.8174V35.2559C15.7 35.342 15.4762 35.3557 15.2671 35.2947C15.0581 35.2337 14.8768 35.1017 14.7545 34.9215C14.6322 34.7414 14.5765 34.5242 14.5969 34.3074C14.6174 34.0906 14.7127 33.8877 14.8665 33.7335L16.1743 32.4257C16.3053 32.2947 16.4722 32.2055 16.6539 32.1694C16.8356 32.1332 17.0239 32.1518 17.1951 32.2227C17.3662 32.2936 17.5125 32.4137 17.6154 32.5677C17.7183 32.7218 17.7732 32.9029 17.7732 33.0881V39.8176C17.7731 40.0659 17.6744 40.3041 17.4988 40.4797C17.3232 40.6553 17.085 40.754 16.8366 40.754ZM16.8366 53.7182C16.5882 53.7182 16.35 53.6195 16.1743 53.4439C15.9987 53.2683 15.9 53.03 15.9 52.7816V48.2202C15.7 48.3062 15.4762 48.32 15.2671 48.2589C15.0581 48.1979 14.8768 48.066 14.7545 47.8858C14.6322 47.7056 14.5765 47.4884 14.5969 47.2716C14.6174 47.0548 14.7127 46.8519 14.8665 46.6977L16.1743 45.3899C16.3053 45.2589 16.4722 45.1697 16.6539 45.1336C16.8356 45.0975 17.0239 45.116 17.195 45.1869C17.3662 45.2578 17.5124 45.3778 17.6154 45.5319C17.7183 45.6859 17.7732 45.867 17.7732 46.0522V52.7816C17.7732 53.03 17.6745 53.2683 17.4989 53.4439C17.3232 53.6195 17.085 53.7182 16.8366 53.7182Z" fill="#555555"></path><path fill-rule="evenodd" clip-rule="evenodd" d="M8.52611 14.8257C6.90708 14.8257 5.58984 13.5085 5.58984 11.8895V9.1594C5.58984 7.54038 6.90708 6.22314 8.52611 6.22314C10.1451 6.22314 11.4624 7.54038 11.4624 9.1594V11.8895C11.4624 13.5085 10.1451 14.8257 8.52611 14.8257ZM8.52611 8.09631C8.24425 8.09662 7.97402 8.20872 7.77472 8.40802C7.57542 8.60732 7.46332 8.87755 7.46302 9.1594V11.8895C7.46302 12.4757 7.93993 12.9526 8.52611 12.9526C9.11228 12.9526 9.58919 12.4757 9.58919 11.8895V9.1594C9.58889 8.87755 9.47679 8.60732 9.27749 8.40802C9.07819 8.20872 8.80796 8.09662 8.52611 8.09631Z" fill="#66BB6A"></path><path fill-rule="evenodd" clip-rule="evenodd" d="M9.17996 27.79C8.93156 27.79 8.69334 27.6913 8.51769 27.5156C8.34205 27.34 8.24337 27.1018 8.24337 26.8534V22.2919C8.07109 22.3662 7.88049 22.387 7.69623 22.3517C7.51197 22.3165 7.34254 22.2267 7.20988 22.094C7.1229 22.0071 7.05391 21.9038 7.00684 21.7902C6.95977 21.6765 6.93555 21.5547 6.93555 21.4317C6.93555 21.3088 6.95977 21.187 7.00684 21.0733C7.05391 20.9597 7.1229 20.8564 7.20988 20.7695L8.51768 19.4617C8.64866 19.3307 8.81552 19.2416 8.99716 19.2055C9.1788 19.1694 9.36707 19.1879 9.53817 19.2588C9.70927 19.3296 9.85552 19.4496 9.95844 19.6036C10.0614 19.7576 10.1163 19.9386 10.1164 20.1238V26.8532C10.1164 26.9762 10.0922 27.098 10.0452 27.2117C9.99815 27.3253 9.92918 27.4286 9.84222 27.5156C9.75527 27.6026 9.65202 27.6716 9.53839 27.7186C9.42476 27.7657 9.30296 27.79 9.17996 27.79Z" fill="#555555"></path><path fill-rule="evenodd" clip-rule="evenodd" d="M8.52611 40.754C6.90708 40.754 5.58984 39.4367 5.58984 37.8177V35.0875C5.58984 33.4684 6.90708 32.1514 8.52611 32.1514C10.1451 32.1514 11.4624 33.4686 11.4624 35.0875V37.8179C11.4624 39.4369 10.1451 40.754 8.52611 40.754ZM8.52611 34.0247C8.24425 34.025 7.97402 34.1371 7.77472 34.3364C7.57542 34.5357 7.46332 34.8059 7.46302 35.0878V37.8179C7.46302 38.4041 7.93993 38.881 8.52611 38.881C9.11228 38.881 9.58919 38.4041 9.58919 37.8179V35.0876C9.58885 34.8058 9.47673 34.5356 9.27743 34.3363C9.07813 34.1371 8.80793 34.025 8.52611 34.0247Z" fill="#66BB6A"></path><path fill-rule="evenodd" clip-rule="evenodd" d="M9.18048 53.7182C8.93208 53.7182 8.69386 53.6195 8.51821 53.4438C8.34257 53.2682 8.24389 53.03 8.24389 52.7816V48.2201C8.04381 48.3066 7.81981 48.3207 7.61049 48.2598C7.40118 48.1989 7.21967 48.0669 7.09723 47.8865C6.97479 47.7061 6.91911 47.4887 6.93976 47.2717C6.96042 47.0547 7.05613 46.8517 7.2104 46.6977L8.5182 45.3899C8.64913 45.2588 8.81602 45.1695 8.99772 45.1333C9.17943 45.0971 9.3678 45.1156 9.53897 45.1865C9.71014 45.2574 9.85642 45.3775 9.9593 45.5316C10.0622 45.6857 10.117 45.8669 10.1169 46.0521V52.7816C10.1169 52.9046 10.0927 53.0263 10.0457 53.14C9.99862 53.2536 9.92964 53.3569 9.84269 53.4438C9.75573 53.5308 9.65249 53.5998 9.53887 53.6469C9.42525 53.6939 9.30346 53.7182 9.18048 53.7182Z" fill="#555555"></path><path fill-rule="evenodd" clip-rule="evenodd" d="M23.8396 14.8257C22.2206 14.8257 20.9033 13.5085 20.9033 11.8895V9.1594C20.9033 7.54038 22.2206 6.22314 23.8396 6.22314C25.4586 6.22314 26.7758 7.54038 26.7758 9.1594V11.8895C26.7758 13.5085 25.4588 14.8257 23.8396 14.8257ZM23.8396 8.09631C23.5577 8.09662 23.2875 8.20872 23.0882 8.40802C22.8889 8.60732 22.7768 8.87755 22.7765 9.1594V11.8895C22.7765 12.4757 23.2534 12.9526 23.8396 12.9526C24.4258 12.9526 24.9027 12.4757 24.9027 11.8895V9.1594C24.9024 8.87755 24.7903 8.60732 24.591 8.40802C24.3917 8.20872 24.1214 8.09662 23.8396 8.09631Z" fill="#66BB6A"></path><path fill-rule="evenodd" clip-rule="evenodd" d="M24.4928 27.7899C24.2445 27.7899 24.0062 27.6912 23.8306 27.5156C23.6549 27.3399 23.5563 27.1017 23.5563 26.8533V22.2918C23.3562 22.3779 23.1324 22.3916 22.9234 22.3306C22.7143 22.2696 22.5331 22.1376 22.4108 21.9575C22.2884 21.7773 22.2327 21.5601 22.2532 21.3433C22.2736 21.1265 22.3689 20.9236 22.5228 20.7694L23.8306 19.4616C23.9616 19.3307 24.1284 19.2416 24.3101 19.2055C24.4917 19.1694 24.68 19.1879 24.8511 19.2588C25.0222 19.3296 25.1685 19.4496 25.2714 19.6036C25.3743 19.7575 25.4293 19.9385 25.4294 20.1237V26.8531C25.4295 26.9762 25.4052 27.098 25.3582 27.2116C25.3111 27.3253 25.2421 27.4285 25.1552 27.5155C25.0682 27.6025 24.9649 27.6715 24.8513 27.7186C24.7377 27.7657 24.6159 27.7899 24.4928 27.7899Z" fill="#555555"></path><path fill-rule="evenodd" clip-rule="evenodd" d="M23.8396 40.754C22.2206 40.754 20.9033 39.4367 20.9033 37.8177V35.0875C20.9033 33.4684 22.2206 32.1514 23.8396 32.1514C25.4586 32.1514 26.7758 33.4686 26.7758 35.0875V37.8179C26.7758 39.4369 25.4588 40.754 23.8396 40.754ZM23.8396 34.0247C23.5577 34.025 23.2875 34.1371 23.0882 34.3364C22.8889 34.5357 22.7768 34.8059 22.7765 35.0878V37.8179C22.7765 38.404 23.2534 38.881 23.8396 38.881C24.4258 38.881 24.9027 38.404 24.9027 37.8179V35.0876C24.9023 34.8058 24.7902 34.5356 24.5909 34.3363C24.3916 34.1371 24.1214 34.025 23.8396 34.0247ZM23.8396 53.7182C22.2206 53.7182 20.9033 52.401 20.9033 50.7819V48.0519C20.9033 46.4328 22.2206 45.1156 23.8396 45.1156C25.4586 45.1156 26.7758 46.4328 26.7758 48.0519V50.7819C26.7758 52.401 25.4588 53.7182 23.8396 53.7182ZM23.8396 46.9888C23.5577 46.9891 23.2875 47.1012 23.0882 47.3005C22.8889 47.4998 22.7768 47.77 22.7765 48.0519V50.7819C22.7765 51.3681 23.2534 51.845 23.8396 51.845C24.4258 51.845 24.9027 51.3681 24.9027 50.7819V48.0519C24.9024 47.77 24.7903 47.4998 24.591 47.3005C24.3917 47.1012 24.1214 46.9891 23.8396 46.9888Z" fill="#66BB6A"></path><path fill-rule="evenodd" clip-rule="evenodd" d="M32.1502 14.8256C31.9018 14.8256 31.6636 14.7269 31.4879 14.5513C31.3123 14.3756 31.2136 14.1374 31.2136 13.889V9.32756C31.0135 9.41408 30.7895 9.42811 30.5802 9.36721C30.3709 9.30631 30.1894 9.17431 30.067 8.99395C29.9445 8.81359 29.8888 8.59617 29.9095 8.37916C29.9301 8.16215 30.0259 7.95914 30.1801 7.80512L31.4879 6.49731C31.6189 6.36638 31.7858 6.27722 31.9674 6.24112C32.1491 6.20501 32.3374 6.22357 32.5085 6.29445C32.6796 6.36533 32.8258 6.48536 32.9288 6.63935C33.0317 6.79334 33.0866 6.97438 33.0866 7.15959V13.889C33.0866 14.012 33.0624 14.1338 33.0154 14.2474C32.9683 14.3611 32.8994 14.4643 32.8124 14.5513C32.7255 14.6382 32.6222 14.7072 32.5086 14.7543C32.395 14.8014 32.2732 14.8256 32.1502 14.8256Z" fill="#555555"></path><path fill-rule="evenodd" clip-rule="evenodd" d="M31.4957 27.7901C29.8766 27.7901 28.5596 26.4729 28.5596 24.8538V22.1238C28.5596 20.5047 29.8768 19.1875 31.4957 19.1875C33.1147 19.1875 34.4319 20.5047 34.4319 22.1238V24.8538C34.4319 26.4729 33.1147 27.7901 31.4957 27.7901ZM31.4957 21.0607C31.2138 21.061 30.9437 21.1731 30.7444 21.3724C30.5451 21.5717 30.433 21.8419 30.4327 22.1238V24.8538C30.433 25.1357 30.5451 25.4059 30.7444 25.6052C30.9437 25.8045 31.2138 25.9166 31.4957 25.9169C31.7775 25.9166 32.0478 25.8045 32.2471 25.6052C32.4464 25.4059 32.5585 25.1357 32.5588 24.8538V22.1238C32.5585 21.8419 32.4464 21.5717 32.2471 21.3724C32.0478 21.1731 31.7775 21.061 31.4957 21.0607Z" fill="#66BB6A"></path><path fill-rule="evenodd" clip-rule="evenodd" d="M32.1502 40.7538C31.9018 40.7538 31.6636 40.6551 31.4879 40.4795C31.3123 40.3038 31.2136 40.0656 31.2136 39.8172V35.2557C31.0135 35.3423 30.7895 35.3563 30.5802 35.2954C30.3709 35.2345 30.1894 35.1025 30.067 34.9221C29.9445 34.7418 29.8888 34.5244 29.9095 34.3074C29.9301 34.0903 30.0259 33.8873 30.1801 33.7333L31.4879 32.4255C31.6189 32.2944 31.7858 32.2051 31.9675 32.1689C32.1492 32.1327 32.3376 32.1513 32.5088 32.2222C32.6799 32.2931 32.8262 32.4132 32.9291 32.5674C33.032 32.7215 33.0868 32.9027 33.0866 33.0879V39.8174C33.0866 39.9404 33.0624 40.0621 33.0154 40.1758C32.9683 40.2894 32.8994 40.3926 32.8124 40.4796C32.7254 40.5665 32.6222 40.6355 32.5086 40.6826C32.395 40.7296 32.2732 40.7538 32.1502 40.7538Z" fill="#555555"></path><path fill-rule="evenodd" clip-rule="evenodd" d="M31.4957 53.7183C29.8766 53.7183 28.5596 52.4011 28.5596 50.7821V48.052C28.5596 46.433 29.8768 45.1157 31.4957 45.1157C33.1147 45.1157 34.4319 46.433 34.4319 48.052V50.7821C34.4319 52.4011 33.1147 53.7183 31.4957 53.7183ZM31.4957 46.9889C31.2138 46.9892 30.9437 47.1014 30.7444 47.3007C30.5451 47.4999 30.433 47.7702 30.4327 48.052V50.7821C30.433 51.0639 30.5451 51.3341 30.7444 51.5334C30.9437 51.7327 31.2138 51.8448 31.4957 51.8452C31.7775 51.8448 32.0478 51.7327 32.2471 51.5334C32.4464 51.3341 32.5585 51.0639 32.5588 50.7821V48.052C32.5585 47.7701 32.4464 47.4999 32.2471 47.3006C32.0478 47.1013 31.7775 46.9892 31.4957 46.9889Z" fill="#66BB6A"></path><path fill-rule="evenodd" clip-rule="evenodd" d="M39.8065 27.7897C39.5581 27.7897 39.3198 27.6911 39.1442 27.5154C38.9685 27.3398 38.8699 27.1015 38.8699 26.8531V22.2917C38.6698 22.3782 38.4458 22.3922 38.2365 22.3313C38.0272 22.2704 37.8456 22.1384 37.7232 21.9581C37.6008 21.7777 37.5451 21.5603 37.5657 21.3433C37.5864 21.1263 37.6821 20.9233 37.8364 20.7692L39.1442 19.4614C39.2752 19.3306 39.442 19.2415 39.6237 19.2054C39.8053 19.1694 39.9935 19.1879 40.1646 19.2588C40.3356 19.3296 40.4819 19.4496 40.5848 19.6035C40.6877 19.7574 40.7427 19.9384 40.7429 20.1236V26.853C40.7429 26.976 40.7188 27.0978 40.6717 27.2115C40.6247 27.3251 40.5557 27.4284 40.4688 27.5154C40.3818 27.6024 40.2786 27.6714 40.1649 27.7185C40.0513 27.7655 39.9295 27.7898 39.8065 27.7897ZM39.8065 40.7538C39.5581 40.7538 39.3198 40.6551 39.1442 40.4795C38.9685 40.3038 38.8699 40.0656 38.8699 39.8172V35.2557C38.6698 35.3423 38.4458 35.3563 38.2365 35.2954C38.0272 35.2345 37.8456 35.1025 37.7232 34.9221C37.6008 34.7418 37.5451 34.5244 37.5657 34.3073C37.5864 34.0903 37.6821 33.8873 37.8364 33.7333L39.1442 32.4255C39.2752 32.2946 39.4421 32.2054 39.6237 32.1693C39.8054 32.1332 39.9937 32.1518 40.1648 32.2227C40.3359 32.2936 40.4822 32.4136 40.5851 32.5676C40.688 32.7217 40.7429 32.9027 40.7429 33.0879V39.8174C40.7429 39.9404 40.7187 40.0622 40.6717 40.1758C40.6246 40.2894 40.5557 40.3927 40.4687 40.4796C40.3817 40.5666 40.2785 40.6356 40.1649 40.6826C40.0512 40.7297 39.9294 40.7538 39.8065 40.7538ZM39.8065 53.718C39.5581 53.718 39.3198 53.6194 39.1442 53.4437C38.9685 53.2681 38.8699 53.0298 38.8699 52.7814V48.22C38.6698 48.3063 38.4459 48.3201 38.2367 48.2592C38.0276 48.1982 37.8462 48.0662 37.7238 47.886C37.6014 47.7057 37.5457 47.4884 37.5663 47.2715C37.5868 47.0546 37.6823 46.8516 37.8364 46.6975L39.1442 45.3897C39.2752 45.2588 39.442 45.1696 39.6237 45.1335C39.8054 45.0974 39.9936 45.116 40.1647 45.1869C40.3358 45.2578 40.4821 45.3778 40.585 45.5318C40.6879 45.6858 40.7428 45.8668 40.7429 46.052V52.7814C40.7429 52.9044 40.7187 53.0262 40.6717 53.1399C40.6246 53.2535 40.5557 53.3568 40.4687 53.4437C40.3817 53.5307 40.2785 53.5997 40.1649 53.6468C40.0512 53.6938 39.9294 53.718 39.8065 53.718Z" fill="#555555"></path></svg> 