<?xml version="1.0" encoding="UTF-8"?> <svg xmlns="http://www.w3.org/2000/svg" fill="none" viewBox="0 0 70 70"><style>.B{fill-rule:evenodd}</style><g fill="#555" class="B"><path d="M64.366 34.632a1.086 1.086 0 0 1-1.087-1.086V16.305h-4.018v17.24a1.086 1.086 0 1 1-2.173 0V15.219a1.087 1.087 0 0 1 1.087-1.086h6.191a1.086 1.086 0 0 1 1.087 1.086v18.328a1.086 1.086 0 0 1-1.087 1.086"></path><path d="M61.271 44.568a1.09 1.09 0 0 1-.88-.45l-7.184-9.936a1.086 1.086 0 0 1 .88-1.723h14.367a1.087 1.087 0 0 1 .881 1.723l-7.184 9.936a1.09 1.09 0 0 1-.88.45m-5.057-9.936 5.057 6.995 5.057-6.995zm-44.848 0a1.086 1.086 0 0 1-1.086-1.086V16.305H6.26v17.24a1.087 1.087 0 0 1-2.173 0V15.219a1.087 1.087 0 0 1 1.086-1.086h6.192a1.086 1.086 0 0 1 1.087 1.086v18.328a1.086 1.086 0 0 1-1.087 1.086"></path><path d="M8.27 44.568a1.09 1.09 0 0 1-.88-.45L.205 34.183a1.087 1.087 0 0 1 .88-1.724h14.368a1.087 1.087 0 0 1 .88 1.724L9.15 44.118a1.09 1.09 0 0 1-.881.45m-5.057-9.936 5.057 6.995 5.057-6.995zM37.866 59.25a1.087 1.087 0 0 1-1.087-1.087v-17.24h-4.018v17.24a1.087 1.087 0 0 1-2.173 0V39.836a1.086 1.086 0 0 1 1.086-1.087h6.192a1.086 1.086 0 0 1 1.087 1.087v18.327a1.087 1.087 0 0 1-1.087 1.087"></path><path d="M34.77 69.186a1.09 1.09 0 0 1-.88-.45L26.706 58.8a1.087 1.087 0 0 1 .88-1.723h14.368a1.085 1.085 0 0 1 .88 1.723l-7.183 9.936a1.09 1.09 0 0 1-.88.45m-5.057-9.936 5.057 6.995 5.058-6.995z"></path></g><g fill="#66bb6a" class="B"><path d="M34.77 33.827a16.86 16.86 0 0 1-11.96-4.954 16.85 16.85 0 0 1-4.953-11.96 16.86 16.86 0 0 1 4.954-11.96A16.85 16.85 0 0 1 34.771 0a16.86 16.86 0 0 1 11.96 4.954 16.85 16.85 0 0 1 4.953 11.96 16.86 16.86 0 0 1-4.954 11.96 16.86 16.86 0 0 1-11.96 4.953m0-31.654c-8.127 0-14.74 6.612-14.74 14.74s6.613 14.74 14.74 14.74c8.129 0 14.741-6.612 14.741-14.74S42.9 2.173 34.771 2.173"></path><path d="M34.77 29.58a12.58 12.58 0 0 1-8.957-3.71 12.58 12.58 0 0 1-3.71-8.957c0-3.383 1.318-6.564 3.71-8.956a12.58 12.58 0 0 1 8.957-3.71c3.383 0 6.563 1.318 8.956 3.71a12.58 12.58 0 0 1 3.71 8.956c0 3.383-1.318 6.564-3.71 8.956a12.58 12.58 0 0 1-8.956 3.71m0-23.16c-5.786 0-10.493 4.707-10.493 10.493s4.707 10.493 10.493 10.493 10.492-4.707 10.492-10.493S40.555 6.42 34.77 6.42m1.706 16.623h-4.708a1.087 1.087 0 0 1-1.086-1.086v-5.044a1.086 1.086 0 0 1 1.086-1.086h4.708a3.613 3.613 0 0 1 3.608 3.608 3.61 3.61 0 0 1-3.608 3.608m-3.621-2.173h3.621c.792 0 1.435-.644 1.435-1.435S37.268 18 36.476 18h-3.621z"></path><path d="M35.942 18h-4.174a1.086 1.086 0 0 1-1.086-1.087V11.87a1.087 1.087 0 0 1 1.086-1.087h4.174a3.61 3.61 0 0 1 3.609 3.609A3.61 3.61 0 0 1 35.942 18m-3.087-2.173h3.087a1.436 1.436 0 0 0 0-2.871h-3.087z"></path><path d="M31.769 12.957h-1.225a1.087 1.087 0 0 1 0-2.174h1.225a1.087 1.087 0 1 1 0 2.174m0 10.086h-1.225a1.087 1.087 0 0 1 0-2.173h1.225a1.087 1.087 0 1 1 0 2.173"></path><path d="M33.055 12.957a1.087 1.087 0 0 1-1.086-1.087v-1.381a1.086 1.086 0 1 1 2.173 0v1.38a1.087 1.087 0 0 1-1.087 1.088m2.555 0a1.087 1.087 0 0 1-1.086-1.087v-1.381a1.086 1.086 0 0 1 2.173 0v1.38a1.087 1.087 0 0 1-1.087 1.088m-2.547 11.467a1.086 1.086 0 0 1-1.087-1.086v-1.381a1.087 1.087 0 0 1 2.173 0v1.38a1.086 1.086 0 0 1-1.087 1.087m2.547 0a1.086 1.086 0 0 1-1.086-1.086v-1.381a1.087 1.087 0 0 1 2.173 0v1.38a1.086 1.086 0 0 1-1.087 1.087"></path></g></svg> 