<svg xmlns="http://www.w3.org/2000/svg" width="1021" height="178" viewBox="0 0 1021 178" fill="none"><mask id="A" maskUnits="userSpaceOnUse" x="4.9" y="12.226" width="137" height="166" fill="#000"><path fill="#fff" d="M4.9 12.226h137v166H4.9z"></path><path d="M91.041 174.068H57.218V50.049H8.9V16.226h128.851v33.823h-46.71v124.019z"></path></mask><path d="M91.041 174.068v3.221h3.221v-3.221h-3.221zm-33.823 0h-3.221v3.221h3.221v-3.221zm0-124.019h3.221v-3.221h-3.221v3.221zm-48.317 0H5.679v3.221H8.9v-3.221zm0-33.823v-3.221H5.679v3.221H8.9zm128.851 0h3.221v-3.221h-3.221v3.221zm0 33.823v3.221h3.221v-3.221h-3.221zm-46.71 0v-3.221H87.82v3.221h3.221zm0 124.019v-3.221H57.218v3.221 3.221h33.823v-3.221zm-33.823 0h3.221V50.049h-3.221-3.221v124.019h3.221zm0-124.019v-3.221H8.9v3.221 3.221h48.317v-3.221zm-48.317 0h3.221V16.226H8.9 5.679v33.823H8.9zm0-33.823v3.221h128.851v-3.221-3.221H8.9v3.221zm128.851 0h-3.221v33.823h3.221 3.221V16.226h-3.221zm0 33.823v-3.221h-46.71v3.221 3.221h46.71v-3.221zm-46.71 0H87.82v124.019h3.221 3.221V50.049h-3.221z" fill="#fff" mask="url(#A)"></path><path d="M189.29 16.226v122.409h56.372V16.226h37.045v127.24h-14.496v32.212h-101.47v-32.212h-14.495V16.226h37.044zm554.059-1.61v161.062h-37.044V14.616h37.044zm-127.242 0v124.018h80.533v37.044H579.063V14.616h37.044zm-46.708 0V51.66h-80.531v24.16h48.32v37.044h-48.32v25.77h80.531v37.044H453.435V14.616h115.964zm-222.267 0v32.212h14.496V77.43h16.106v30.602h16.107v30.602h11.274V14.616h37.044v161.062h-69.257v-30.601h-16.106v-30.602h-16.107V83.873h-9.664v91.805h-37.044V45.217h16.107V14.616h37.044z" stroke="#fff" stroke-width="3.221"></path><g fill="#fff"><use href="#B"></use><use href="#B" y="-32.212"></use><use href="#B" y="-64.425"></use><use href="#B" y="-96.637"></use><use href="#B" x="96.639"></use><use href="#B" x="96.639" y="-32.212"></use><use href="#B" x="96.639" y="-64.425"></use><use href="#B" x="96.639" y="-96.637"></use><path d="M160.3 128.97h96.638v28.991H160.3z"></path><use href="#C"></use><use href="#C" y="-32.213"></use><use href="#C" y="-64.425"></use><use href="#C" y="-96.638"></use><path d="M.847.12h128.851v28.991H.847z"></path><use href="#B" x="254.481"></use><use href="#B" x="209.384"></use><use href="#B" x="193.277" y="-32.212"></use><use href="#B" x="254.481" y="-32.212"></use><use href="#B" x="254.481" y="-64.425"></use><use href="#B" x="254.481" y="-96.637"></use><use href="#B" x="144.957"></use><use href="#B" x="144.957" y="32.213"></use><use href="#B" x="144.957" y="-32.212"></use><path d="M287.539 32.332h64.425v28.991h-64.425zm0-32.212h49.93v28.991h-49.93zm78.921 128.85h64.425v28.991H366.46z"></path><use href="#B" x="306.021" y="-64.425"></use><use href="#B" x="306.021"></use><path d="M448.603 128.97h109.523v28.991H448.603zm0-128.85h109.523v28.991H448.603zm0 64.425h77.31v28.991h-77.31z"></path><use href="#D"></use><use href="#D" y="-32.212"></use><use href="#D" y="-64.425"></use><use href="#B" x="430.039" y="-96.637"></use><path d="M572.62 128.97h114.355v28.991H572.62z"></path><use href="#B" x="557.279"></use><use href="#B" x="557.279" y="32.213"></use><use href="#B" x="557.279" y="-32.212"></use><use href="#B" x="557.279" y="-64.425"></use><use href="#B" x="557.279" y="-96.637"></use></g><path d="M875.419 14.616v30.602h16.106v99.86h-32.212v30.601h-83.752v-30.601h-16.107V14.616h115.965zm127.241 0v33.823h16.1v127.239h-37.04v-62.814h-41.877v62.814h-37.044V48.439h16.106V14.616h83.755zM939.843 75.82h41.877V51.66h-41.877v24.16z" stroke="#fff" stroke-width="3.221"></path><g fill="#fff"><use href="#B" x="753.775"></use><use href="#B" x="832.695"></use><use href="#B" x="753.775" y="32.213"></use><use href="#B" x="832.695" y="32.213"></use><path d="M896.357 64.545h112.744v28.991H896.357z"></path><use href="#B" x="753.775" y="-64.425"></use><use href="#B" x="832.695" y="-64.425"></use><path d="M912.464.12h80.532v28.991h-80.532z"></path><use href="#B" x="608.817"></use><path d="M817.436 96.757h66.036v28.991h-66.036zm-48.318 32.213h80.532v28.991h-80.532z"></path><use href="#B" x="608.817" y="-32.212"></use><use href="#B" x="707.067" y="-32.212"></use><use href="#B" x="608.817" y="-64.425"></use><use href="#B" x="707.067" y="-64.425"></use><path d="M769.118.12h98.249v28.991h-98.249z"></path></g><defs><path id="B" d="M142.582 96.757h33.823v28.991h-33.823z"></path><path id="C" d="M49.166 128.97h33.823v28.991H49.166z"></path><path id="D" d="M572.62 96.757h33.823v28.991H572.62z"></path></defs></svg> 