<svg xmlns="http://www.w3.org/2000/svg" viewBox="0 0 153 153" fill="none"><style><![CDATA[.B{fill:#5a7f00}.C{fill:#9acc6c}.D{fill:#81aa39}.E{fill:#6d961e}.F{fill:#597500}]]></style><g class="E"><path d="M88.1 64H80v8.1h8.1V64z"/><path d="M80.1 64H72v8.1h8.1V64z"/></g><path d="M104.1 64H96v8.1h8.1V64zm-40 24H56v8.1h8.1V88z" class="C"/><path d="M96.1 64H88v8.1h8.1V64z" class="E"/><path d="M64.1 80H56v8.1h8.1V80z" class="C"/><path d="M112.1 64H104v8.1h8.1V64z" class="D"/><path d="M64.1 64H56v8.1h8.1V64z" class="E"/><path d="M64.1 72H56v8.1h8.1V72z" class="C"/><path d="M72.1 64H64v8.1h8.1V64z" class="E"/><path d="M120.1 64H112v8.1h8.1V64z" class="B"/><path d="M136.1 64H128v8.1h8.1V64z" class="F"/><path d="M128.1 64H120v8.1h8.1V64zm-48 16H72v8.1h8.1V80z" class="E"/><path d="M72.1 80H64v8.1h8.1V80z" class="C"/><path d="M64.1 128H56v8.1h8.1V128z" class="E"/><path d="M64.1 96H56v8.1h8.1V96z" class="C"/><path d="M64.1 120H56v8.1h8.1V120z" class="B"/><path d="M64.1 104H56v8.1h8.1V104z" class="C"/><path d="M64.1 136H56v8.1h8.1V136z" class="F"/><path d="M64.1 112H56v8.1h8.1V112z" class="D"/><path d="M80.1 104H72v8.1h8.1V104z" class="B"/><path d="M80.1 88H72v8.1h8.1V88z" class="C"/><path d="M80.1 112H72v8.1h8.1V112z" class="E"/><path d="M80.1 120H72v8.1h8.1V120z" class="F"/><path d="M80.1 96H72v8.1h8.1V96z" class="D"/><path d="M112.1 72H104v8.1h8.1V72z" class="B"/><path d="M128.1 72H120v8.1h8.1V72z" class="F"/><path d="M120.1 72H112v8.1h8.1V72z" class="E"/><path d="M72.1 128H64v8.1h8.1V128z" class="F"/><path d="M72.1 120H64v8.1h8.1V120z" class="E"/><path d="M72.1 96H64v8.1h8.1V96zm8-24H72v8.1h8.1V72z" class="C"/><path d="M72.1 112H64v8.1h8.1V112z" class="B"/><path d="M72.1 72H64v8.1h8.1V72zm24 0H88v8.1h8.1V72z" class="C"/><path d="M88.1 72H80v8.1h8.1V72z" class="E"/><path d="M104.1 72H96v8.1h8.1V72zm-32 32H64v8.1h8.1V104z" class="D"/><path d="M72.1 88H64v8.1h8.1V88z" class="C"/><path d="M40.1 128H32v8.1h8.1V128z" class="F"/><path d="M40.1 120H32v8.1h8.1V120z" class="E"/><path d="M40.1 80H32v8.1h8.1V80z" class="C"/><path d="M40.1 72H32v8.1h8.1V72z" class="D"/><path d="M40.1 64H32v8.1h8.1V64z" class="B"/><path d="M40.1 96H32v8.1h8.1V96z" class="C"/><path d="M40.1 112H32v8.1h8.1V112z" class="B"/><path d="M40.1 104H32v8.1h8.1V104z" class="D"/><path d="M40.1 88H32v8.1h8.1V88z" class="C"/><path d="M104.1 40H96v8.1h8.1V40z" fill="#61842d"/><g class="C"><path d="M96.1 40H88v8.1h8.1V40z"/><path d="M88.1 40H80v8.1h8.1V40zm24 0H104v8.1h8.1V40z"/></g><path d="M64.1 40H56v8.1h8.1V40z" class="B"/><path d="M80.1 40H72v8.1h8.1V40zm40 0H112v8.1h8.1V40z" class="C"/><path d="M72.1 40H64v8.1h8.1V40z" class="D"/><path d="M128.1 40H120v8.1h8.1V40zm16 0H136v8.1h8.1V40z" class="B"/><path d="M136.1 40H128v8.1h8.1V40z" class="D"/><path d="M72.1 56H64v8.1h8.1V56z" class="E"/><g class="C"><path d="M80.1 56H72v8.1h8.1V56zm-24 24H48v8.1h8.1V80zm40-24H88v8.1h8.1V56z"/><path d="M56.1 72H48v8.1h8.1V72z"/><path d="M56.1 64H48v8.1h8.1V64z"/><path d="M64.1 56H56v8.1h8.1V56z"/></g><path d="M56.1 56H48v8.1h8.1V56z" class="D"/><g class="C"><path d="M104.1 56H96v8.1h8.1V56z"/><path d="M112.1 56H104v8.1h8.1V56z"/></g><path d="M128.1 56H120v8.1h8.1V56z" class="B"/><path d="M120.1 56H112v8.1h8.1V56z" class="D"/><path d="M144.1 56H136v8.1h8.1V56z" class="F"/><path d="M136.1 56H128v8.1h8.1V56z" class="E"/><path d="M88.1 56H80v8.1h8.1V56zm-32 48H48v8.1h8.1V104z" class="C"/><path d="M56.1 112H48v8.1h8.1V112z" class="B"/><path d="M56.1 96H48v8.1h8.1V96z" class="C"/><path d="M56.1 120H48v8.1h8.1V120z" class="D"/><path d="M56.1 128H48v8.1h8.1V128z" class="B"/><path d="M56.1 144H48v8.1h8.1V144z" class="F"/><path d="M56.1 136H48v8.1h8.1V136z" class="E"/><path d="M56.1 88H48v8.1h8.1V88z" fill="#61842d"/><path d="M128.1 48H120v8.1h8.1V48z" class="D"/><g class="B"><path d="M136.1 48H128v8.1h8.1V48z"/><path d="M144.1 48H136v8.1h8.1V48z"/><path d="M152.1 48H144v8.1h8.1V48z"/></g><g class="C"><path d="M120.1 48H112v8.1h8.1V48zm-24 0H88v8.1h8.1V48z"/><path d="M104.1 48H96v8.1h8.1V48z"/><path d="M112.1 48H104v8.1h8.1V48zm-24 0H80v8.1h8.1V48z"/></g><path d="M48.1 120H40v8.1h8.1V120z" class="B"/><path d="M48.1 96H40v8.1h8.1V96z" class="C"/><path d="M48.1 128H40v8.1h8.1V128z" class="E"/><path d="M48.1 104H40v8.1h8.1V104z" class="C"/><path d="M80.1 48H72v8.1h8.1V48z" class="E"/><path d="M48.1 136H40v8.1h8.1V136z" class="F"/><path d="M48.1 112H40v8.1h8.1V112zm16-64H56v8.1h8.1V48z" class="D"/><path d="M56.1 48H48v8.1h8.1V48z" class="B"/><g class="C"><path d="M48.1 88H40v8.1h8.1V88zm24-40H64v8.1h8.1V48zm-24 24H40v8.1h8.1V72z"/><path d="M48.1 80H40v8.1h8.1V80z"/></g><path d="M48.1 64H40v8.1h8.1V64z" class="D"/><path d="M48.1 56H40v8.1h8.1V56z" class="B"/><path d="M112.1 88H104v8.1h8.1V88z" class="F"/><g class="B"><path d="M96.1 88H88v8.1h8.1V88z"/><path d="M88.1 96H80v8.1h8.1V96z"/></g><path d="M104.1 88H96v8.1h8.1V88z" class="E"/><path d="M88.1 88H80v8.1h8.1V88z" class="D"/><path d="M88.1 112H80v8.1h8.1V112z" class="F"/><path d="M88.1 104H80v8.1h8.1V104z" class="E"/><path d="M104.1 80H96v8.1h8.1V80z" class="B"/><path d="M96.1 80H88v8.1h8.1V80z" class="D"/><path d="M112.1 80H104v8.1h8.1V80z" class="E"/><path d="M120.1 80H112v8.1h8.1V80z" class="F"/><path d="M88.1 80H80v8.1h8.1V80z" class="C"/><path d="M104.1 96H96v8.1h8.1V96z" class="F"/><path d="M96.1 96H88v8.1h8.1V96z" class="E"/><path d="M96.1 104H88v8.1h8.1V104z" class="F"/><path d="M104.1 0H96v8.1h8.1V0z" class="B"/><path d="M104.1 24H96v8.1h8.1V24z" class="C"/><path d="M120.1 24H112v8.1h8.1V24z" class="D"/><path d="M128.1 24H120v8.1h8.1V24z" class="B"/><path d="M112.1 24H104v8.1h8.1V24z" class="D"/><path d="M80.1 24H72v8.1h8.1V24z" class="B"/><path d="M88.1 24H80v8.1h8.1V24z" class="D"/><path d="M96.1 24H88v8.1h8.1V24z" class="C"/><g class="B"><path d="M24.1 80H16v8.1h8.1V80zm0 16H16v8.1h8.1V96z"/><path d="M16.1 96H8v8.1h8.1V96z"/><path d="M8.1 96H0v8.1h8.1V96z"/></g><path d="M24.1 88H16v8.1h8.1V88z" class="D"/><path d="M24.1 104H16v8.1h8.1V104z" class="E"/><path d="M24.1 112H16v8.1h8.1V112z" class="F"/><path d="M112.1 32H104v8.1h8.1V32z" class="C"/><path d="M128.1 32H120v8.1h8.1V32z" class="D"/><path d="M136.1 32H128v8.1h8.1V32z" class="B"/><path d="M120.1 32H112v8.1h8.1V32zm-40 0H72v8.1h8.1V32z" class="D"/><g class="C"><path d="M88.1 32H80v8.1h8.1V32zm16 0H96v8.1h8.1V32z"/><path d="M96.1 32H88v8.1h8.1V32z"/></g><path d="M72.1 32H64v8.1h8.1V32z" class="B"/><path d="M32.1 80H24v8.1h8.1V80z" class="D"/><path d="M32.1 104H24v8.1h8.1V104z" class="B"/><path d="M32.1 112H24v8.1h8.1V112z" class="E"/><path d="M32.1 96H24v8.1h8.1V96z" class="D"/><path d="M32.1 88H24v8.1h8.1V88z" class="B"/><path d="M32.1 120H24v8.1h8.1V120z" class="F"/><path d="M32.1 72H24v8.1h8.1V72zm64-64H88v8.1h8.1V8z" class="B"/><path d="M104.1 8H96v8.1h8.1V8z" class="D"/><path d="M112.1 8H104v8.1h8.1V8z" class="B"/><path d="M112.1 16H104v8.1h8.1V16z" class="D"/><path d="M120.1 16H112v8.1h8.1V16zm-16 0H96v8.1h8.1V16zm-16 0H80v8.1h8.1V16z" class="B"/><path d="M96.1 16H88v8.1h8.1V16z" class="D"/><path d="M16.1 104H8v8.1h8.1V104zm0-16H8v8.1h8.1V88z" class="B"/></svg>