<?xml version="1.0" encoding="UTF-8"?> <svg xmlns="http://www.w3.org/2000/svg" width="75" height="81" fill="none" fill-rule="evenodd"><g fill="#555"><path d="M30.087 45.83c-.02 0-.038 0-.058-.001l-8.927-.403c-.331-.02-.642-.169-.864-.416s-.338-.571-.323-.903.16-.644.403-.87.566-.346.898-.336l8.927.403c.328.017.637.162.86.402s.345.559.337.888-.142.641-.377.872-.549.361-.877.364z"></path><path d="M9.961 64.24c-.232 0-.459-.064-.657-.185L.606 58.751c-.284-.173-.489-.452-.569-.775s-.03-.665.141-.951l12.596-21.166c.085-.144.198-.269.332-.368a1.26 1.26 0 0 1 .449-.212c.162-.04.331-.048.496-.023s.324.083.466.17l8.699 5.304c.281.177.481.457.557.78s.021.663-.151.947-.45.488-.772.568-.663.032-.949-.137l-7.608-4.639L2.989 57.244l7.632 4.654c.142.086.265.2.363.334s.168.286.207.447.046.329.021.493-.083.321-.17.463c-.113.185-.272.338-.461.444s-.403.162-.619.161z"></path><path d="M9.962 64.24c-.223 0-.442-.059-.635-.172s-.352-.274-.463-.468-.167-.414-.165-.637.064-.442.178-.633l12.596-21.166c.085-.143.197-.267.33-.366s.284-.171.445-.212.328-.05.492-.026.322.08.465.165.267.197.366.33a1.26 1.26 0 0 1 .212.445c.041.161.05.328.026.492s-.08.322-.165.465L11.049 63.623c-.112.188-.271.344-.462.453s-.406.165-.625.165z"></path><path d="M15.729 65.968a1.26 1.26 0 0 1-.914-.39l-4.189-4.379c-.226-.243-.347-.566-.337-.898s.15-.647.39-.876.561-.355.893-.35.649.141.882.377l4.189 4.379c.171.179.286.404.33.648s.016.495-.081.722-.259.422-.465.558-.448.209-.696.209zm35.393 8.148a4.44 4.44 0 0 1-2.028-.489c-.224-.115-.439-.25-.64-.401l-7.081-5.321c-.133-.1-.244-.225-.329-.367s-.14-.301-.163-.465-.014-.332.027-.492.114-.312.213-.444.224-.244.367-.329a1.26 1.26 0 0 1 .465-.163c.164-.023.332-.014.492.027a1.26 1.26 0 0 1 .444.214l7.081 5.321a1.88 1.88 0 0 0 .276.173 1.92 1.92 0 0 0 2.347-.49c.281-.339.434-.766.432-1.207 0-.131-.013-.26-.039-.385-.062-.326.006-.663.19-.939s.47-.468.794-.536.663-.004.942.175.476.462.548.786a4.43 4.43 0 0 1 .092.899c0 1.021-.357 2.018-1.005 2.809a4.45 4.45 0 0 1-2.548 1.536 4.4 4.4 0 0 1-.881.088z"></path><path d="M46.678 78.125a4.45 4.45 0 0 1-2.357-.675c-.134-.083-.264-.174-.389-.271l-5.31-4.134a1.26 1.26 0 0 1-.322-.373c-.082-.144-.135-.303-.155-.468s-.008-.332.036-.492.119-.31.221-.441a1.26 1.26 0 0 1 .373-.322c.144-.082.303-.135.468-.155s.332-.008.492.036.31.119.441.221l5.311 4.135c.055.043.112.082.17.118.406.253.892.347 1.363.264s.895-.339 1.189-.716a1.92 1.92 0 0 0 .413-1.195c0-.239-.043-.476-.129-.699-.12-.313-.11-.661.026-.967s.389-.545.702-.665.661-.11.967.027.545.389.665.702a4.46 4.46 0 0 1 .295 1.602c0 1.007-.328 1.959-.951 2.754-.418.535-.951.967-1.561 1.265a4.46 4.46 0 0 1-1.957.452z"></path><path d="M42.029 80.877a4.22 4.22 0 0 1-2.329-.7l-5.283-3.487c-.582-.384-.743-1.169-.359-1.751s1.168-.743 1.751-.358l5.283 3.487a1.7 1.7 0 0 0 2.271-.359c.276-.341.407-.776.367-1.213-.032-.334.07-.666.284-.924s.52-.422.854-.454.666.07.924.284.422.521.454.854l.018.39c0 .956-.33 1.894-.928 2.642-.659.825-1.603 1.373-2.646 1.537-.219.035-.441.052-.661.052z"></path><path d="M30.946 80.049a3.7 3.7 0 0 1-2.633-1.09 3.7 3.7 0 0 1-1.09-2.633c0-.995.387-1.93 1.09-2.633l2.487-2.487c.345-.347.755-.622 1.207-.809a3.7 3.7 0 0 1 1.426-.282c.995 0 1.93.387 2.633 1.09a3.73 3.73 0 0 1 0 5.265l-2.487 2.487a3.7 3.7 0 0 1-1.207.809c-.452.187-.937.283-1.426.281zm-.846-2.877a1.2 1.2 0 0 0 1.691 0l2.487-2.487a1.2 1.2 0 0 0 0-1.691 1.2 1.2 0 0 0-1.691 0L30.1 75.48c-.226.226-.35.526-.35.846a1.19 1.19 0 0 0 .35.846z"></path><path d="M26.38 77.514a4.04 4.04 0 0 1-1.559-.308c-.494-.205-.943-.505-1.32-.885-.769-.769-1.193-1.791-1.193-2.879s.423-2.11 1.193-2.879l3.303-3.303c.769-.769 1.791-1.193 2.879-1.193s2.11.424 2.879 1.193 1.193 1.791 1.193 2.879-.423 2.11-1.193 2.879l-3.303 3.303c-.377.379-.826.68-1.32.885s-1.024.309-1.559.308zm3.304-8.918c-.203 0-.404.039-.591.117s-.357.192-.5.336l-3.303 3.303c-.292.292-.452.679-.452 1.091s.161.8.452 1.091.679.452 1.092.452.8-.161 1.092-.452l3.303-3.303c.292-.292.452-.679.452-1.091s-.16-.8-.452-1.091-.679-.452-1.091-.452z"></path><path d="M21.859 74.101a4.03 4.03 0 0 1-1.554-.307c-.492-.204-.94-.504-1.316-.881s-.678-.823-.881-1.316a4.03 4.03 0 0 1-.307-1.554 4.03 4.03 0 0 1 .307-1.554c.204-.492.504-.94.881-1.316l4.347-4.347a4.03 4.03 0 0 1 2.869-1.188c1.084 0 2.102.422 2.869 1.188 1.582 1.582 1.582 4.156 0 5.738l-4.348 4.347a4.03 4.03 0 0 1-1.315.882c-.492.204-1.02.308-1.553.307zm4.347-9.935a1.52 1.52 0 0 0-1.082.448l-4.347 4.347a1.52 1.52 0 0 0-.448 1.082 1.52 1.52 0 0 0 1.53 1.53 1.52 1.52 0 0 0 1.082-.448l4.348-4.347c.596-.597.596-1.568 0-2.164a1.52 1.52 0 0 0-1.083-.448z"></path><path d="M18.076 70.037c-1.047 0-2.032-.408-2.773-1.148-1.529-1.529-1.529-4.016 0-5.546l2.439-2.439c1.529-1.529 4.016-1.529 5.546 0s1.529 4.016 0 5.546l-2.439 2.439c-.363.365-.795.655-1.271.852s-.986.298-1.502.296zm2.439-7.753a1.39 1.39 0 0 0-.986.408l-2.439 2.439c-.261.262-.408.616-.408.986s.147.724.408.986.613.408.986.408.723-.145.986-.408l2.44-2.439c.261-.262.408-.616.408-.986s-.147-.724-.408-.986a1.39 1.39 0 0 0-.986-.408zm34.735.603c-.232 0-.459-.063-.657-.184s-.359-.293-.466-.498c-.076-.147-.123-.308-.137-.474s.004-.332.054-.49.131-.305.238-.432.238-.232.385-.308l8.88-4.609c.619-.322 1.382-.08 1.704.54s.08 1.382-.54 1.704l-8.88 4.609c-.179.093-.379.142-.581.142z"></path><path d="M65.313 60.037a1.26 1.26 0 0 1-.593-.147c-.183-.097-.339-.237-.455-.409L52.029 41.382c-.096-.142-.162-.302-.194-.471a1.26 1.26 0 0 1 .007-.51c.037-.168.108-.326.208-.465s.228-.257.375-.345l8.425-5.063c.277-.167.608-.221.924-.151s.593.258.774.526l12.236 18.1c.096.142.162.302.194.471s.03.342-.007.51-.108.326-.208.465-.228.257-.375.345l-8.425 5.063a1.26 1.26 0 0 1-.65.18zM54.87 41.07l10.818 16.003 6.256-3.759-10.818-16.003-6.256 3.759z"></path><path d="M55.905 70.755a4.63 4.63 0 0 1-2.311-.619l-.391-.253-10.47-7.547c-.268-.197-.447-.493-.498-.821s.029-.665.223-.934.488-.452.816-.508.665.021.937.213l10.469 7.545a2.09 2.09 0 0 0 1.225.396c.324.002.644-.072.935-.216s.544-.353.739-.612a2.08 2.08 0 0 0-.496-3.012l-2.542-1.718-19.549-13.209-4.084 4.321-.076.074c-2.708 2.424-5.092 2.577-6.614 2.279-1.677-.328-2.683-1.26-2.792-1.365-.231-.222-.368-.523-.385-.843s.088-.634.293-.879l9.172-10.952a4.89 4.89 0 0 1 3.447-1.737c2.373-.141 5.431.09 7.58.308l3.831.544c4.972.889 9.226.682 9.269.68.166-.009.332.016.488.071s.3.141.424.252.223.245.295.395.112.312.121.478-.015.331-.071.488-.141.3-.252.424-.245.223-.395.295-.312.112-.478.121c-.185.009-4.59.223-9.844-.716l-3.641-.518c-2.056-.209-4.969-.43-7.175-.3-.319.02-.63.104-.915.248s-.538.344-.743.589l-8.214 9.807a3.54 3.54 0 0 0 .583.147c1.354.221 2.799-.34 4.297-1.668l4.784-5.062c.206-.218.482-.355.78-.388s.598.041.846.209l20.438 13.81 2.542 1.718c1.049.709 1.77 1.833 1.975 3.083a4.65 4.65 0 0 1-.883 3.553 4.59 4.59 0 0 1-3.685 1.826z"></path></g><path d="M37.501 37.313a1.26 1.26 0 0 1-.911-.388l-.906-.941-.612-.658-.877-.914c-.405-.381-.934-.725-1.617-1.053l-1.167-.535-.007-.003-1.914-.898c-1.718-.874-3.094-1.902-4.209-3.144-.815-.907-1.491-1.929-2.006-3.034a12.11 12.11 0 0 1-1.033-3.508 13.91 13.91 0 0 1-.113-1.441v-.02-.039-.02l.011-13.361c0-.314.117-.616.328-.849a1.26 1.26 0 0 1 .813-.408l1.134-.111c4.356-.425 8.401-2.16 11.389-4.886l.847-.772c.233-.212.536-.33.852-.33s.619.118.852.33l.847.772c2.987 2.726 7.032 4.461 11.387 4.886l1.134.111c.312.03.602.176.813.408a1.26 1.26 0 0 1 .328.849l.011 13.38v.043.02a13.87 13.87 0 0 1-.113 1.437c-.165 1.215-.513 2.398-1.033 3.509a12.37 12.37 0 0 1-2.007 3.034c-1.115 1.242-2.491 2.269-4.208 3.143-.661.337-1.299.622-1.915.898l-.01.004-1.164.533c-.683.328-1.212.672-1.617 1.053a16.75 16.75 0 0 0-.876.914l-.613.658-.906.941a1.26 1.26 0 0 1-.911.388zM24.656 20.718h0a11.58 11.58 0 0 0 .091 1.182 9.59 9.59 0 0 0 .818 2.775 9.88 9.88 0 0 0 1.597 2.415c.903 1.006 2.039 1.849 3.474 2.58.605.308 1.213.58 1.802.844l.007.003 1.229.564c.918.441 1.654.928 2.251 1.488.353.331.672.68 1.011 1.05l.565.607.564-.607c.339-.37.658-.719 1.011-1.05.597-.56 1.334-1.047 2.253-1.489.402-.193.803-.373 1.228-.563l.01-.004c.585-.262 1.194-.535 1.799-.843 1.434-.73 2.571-1.574 3.474-2.58a9.83 9.83 0 0 0 1.597-2.415 9.6 9.6 0 0 0 .818-2.776 11.67 11.67 0 0 0 .092-1.181v-.001l-.01-12.213c-4.891-.479-9.448-2.442-12.833-5.53-3.387 3.088-7.945 5.051-12.836 5.53l-.011 12.214zm12.845 9.877a1.26 1.26 0 0 1-.815-.297c-.599-.505-1.3-.947-2.14-1.351l-1.177-.54-.012-.005-1.614-.756c-1.179-.6-2.104-1.283-2.827-2.089a7.77 7.77 0 0 1-1.259-1.904 7.53 7.53 0 0 1-.642-2.178 9.28 9.28 0 0 1-.072-.913v-.044l.007-9.034c0-.292.102-.575.287-.801s.444-.38.73-.437c3.218-.638 6.258-1.951 8.792-3.795.216-.157.477-.242.744-.242s.528.085.744.242c2.532 1.844 5.571 3.157 8.789 3.795a1.26 1.26 0 0 1 .73.437c.185.226.287.509.287.801l.008 9.036c-.008.32-.032.639-.073.957a7.51 7.51 0 0 1-.642 2.177 7.75 7.75 0 0 1-1.259 1.904c-.723.805-1.648 1.489-2.828 2.089l-1.617.757-.012.005-1.176.54c-.84.404-1.54.845-2.14 1.351a1.26 1.26 0 0 1-.813.296zm-8.032-10.098l.05.64c.067.494.211.981.428 1.446a5.23 5.23 0 0 0 .85 1.285c.511.57 1.196 1.068 2.093 1.524l1.505.703.012.005 1.235.567c.686.329 1.301.683 1.86 1.073a13.38 13.38 0 0 1 1.859-1.073l1.234-.566.013-.006 1.506-.704c.897-.457 1.582-.955 2.093-1.525a5.22 5.22 0 0 0 .85-1.285 5 5 0 0 0 .428-1.445c.025-.184.041-.393.05-.64l-.007-7.997c-2.893-.697-5.634-1.889-8.024-3.488-2.391 1.6-5.133 2.792-8.027 3.489l-.007 7.997zm6.59 2.084a1.26 1.26 0 0 1-.894-.37l-2.95-2.95c-.237-.237-.37-.558-.37-.894s.133-.657.37-.894.558-.37.894-.37.657.133.894.37l2.056 2.056 4.937-4.937c.237-.237.558-.37.894-.37s.657.133.894.37.37.558.37.894-.133.657-.37.894l-5.831 5.831a1.26 1.26 0 0 1-.894.37z" fill="#66bb6a"></path></svg> 