<?xml version="1.0" encoding="UTF-8"?> <svg xmlns="http://www.w3.org/2000/svg" width="512" height="236" viewBox="0 0 512 236" fill="none" opacity=".65"><path d="M281.12 121.44a12.25 12.25 0 0 1-1.37-2.58c-.66-1.34-2.41-2.08-2.95-3.16s-1-4.41-1-8c-.101-3.202-.56-6.381-1.37-9.48a19.77 19.77 0 0 1-1-6c.05-2.26-.24-4.26-.24-5.46l.11-3.65c.105-2.624-.544-5.223-1.87-7.49-1.41-2.49-4.45-2.53-5.24-3.12s-2.33-.91-3.78-1.74-2.41-1.05-2.41-1.63c-.07-1.139.1-2.281.5-3.35.354-.788.551-1.637.58-2.5.62.33.66-.25 1.2-1.37.456-.732.663-1.591.59-2.45-.011-.077-.037-.151-.077-.218a.58.58 0 0 0-.154-.172.59.59 0 0 0-.208-.099c-.076-.019-.154-.023-.231-.012 0 0 1-3.62-.91-5.95a6.94 6.94 0 0 0-4.61-2.29H256a6.91 6.91 0 0 0-4.6 2.29c-1.88 2.33-.92 5.95-.92 5.95a.58.58 0 0 0-.229.012c-.074.019-.144.053-.206.099s-.113.105-.151.172a.58.58 0 0 0-.074.217c-.075.858.128 1.717.58 2.45.54 1.12.58 1.7 1.2 1.37a6.55 6.55 0 0 0 .59 2.5 8.09 8.09 0 0 1 .53 3.37c0 .58-.95.83-2.41 1.66s-3 1.16-3.78 1.74-3.83.63-5.24 3.12a13.83 13.83 0 0 0-1.87 7.49l.11 3.65-.24 5.46a19.77 19.77 0 0 1-1 6c-.81 3.099-1.269 6.278-1.37 9.48 0 3.58-.45 6.91-1 8s-2.29 1.82-2.95 3.16c-.347.913-.807 1.78-1.37 2.58-.37.33.68.89 1.42 0s.94-1.12 1.13-1.12c.37 0 .56.49 0 2.3-.62 2.19-.8 4.43.32 3.5.19.93.88.61 1.12.37.153-.177.284-.372.39-.58 0 0 .81.63 1.67-1.58 0 0 .71.57 1.5-2 .683-1.922.923-3.973.7-6-.21-1.55 3.5-8.23 3.93-13.94s1.23-10.14 1.54-10.45 2.09 5.41 1.35 8.42c-.431 1.638-.719 3.311-.86 5l-.61 5.34c-.3 2.52-2.15 5.22-1.17 14s2.58 13.29 2.76 15.08.56 6.45.5 7.37-.37 2.21-.43 3.19c-.708 3.737-.54 7.588.49 11.25a65.9 65.9 0 0 1 2 11.49c0 .73-.37.86 0 1.84.099.764.04 1.54-.175 2.28a5.6 5.6 0 0 1-1.075 2.02 5.35 5.35 0 0 0-1.31 1.88c-.21.4-.29.92.07.92 0 0-.07.39.11.57a.33.33 0 0 0 .41 0s-.22.43.22.54.5 0 .5 0c-.026.073-.038.151-.034.229a.6.6 0 0 0 .059.224.57.57 0 0 0 .143.184c.059.051.128.089.202.113.56.19.75-.19 1.12-.37-.37.75.38 1.49 1.5.56.81-.67.65-1.12 1.1-1.93a8.87 8.87 0 0 0 .87-2.19c.27-.93 1.06-.79.9-2.5s-.52-2.2-.19-3.13c.125-.823.032-1.665-.27-2.44-.043-1.903.028-3.806.21-5.7.18-1.17 1.23-5.17 1.1-6.76s.43-2.83-.49-6.82.55-3.5.49-7.62.68-7.15.43-11a48.52 48.52 0 0 1 .43-8.17c.08-1.35.39-1.83.6-2h.05c.21.17.52.65.6 2a48.52 48.52 0 0 1 .43 8.17c-.25 3.81.49 6.84.43 11s1.41 3.62.49 7.62-.37 5.22-.49 6.82.92 5.59 1.1 6.76a47.99 47.99 0 0 1 .21 5.7c-.302.775-.395 1.617-.27 2.44.33.93 0 1.42-.19 3.13s.63 1.57.9 2.5c.2.762.492 1.498.87 2.19.45.81.3 1.26 1.1 1.93 1.12.93 1.87.19 1.5-.56.37.18.56.56 1.12.37a.58.58 0 0 0 .347-.296c.035-.07.057-.146.062-.224a.58.58 0 0 0-.029-.23s.06.13.49 0 .22-.54.22-.54a.33.33 0 0 0 .41 0c.18-.18.11-.57.11-.57.36 0 .28-.52.07-.92a5.41 5.41 0 0 0-1.3-1.88c-.93-.92-1.62-3.32-1.25-4.3s0-1.11 0-1.84c.329-3.881.998-7.726 2-11.49a24.86 24.86 0 0 0 .5-11.25c-.07-1-.37-2.27-.43-3.19s.3-5.59.49-7.37 1.78-6.36 2.76-15.08-.86-11.43-1.17-14l-.61-5.34c-.141-1.689-.429-3.362-.86-5-.74-3 1-8.73 1.35-8.42s1.11 4.73 1.54 10.45 4.18 12.34 4 13.88a13.52 13.52 0 0 0 .7 6c.79 2.53 1.5 2 1.5 2 .86 2.21 1.67 1.58 1.67 1.58.106.208.237.403.39.58.24.24.93.56 1.12-.37 1.12.93.94-1.31.32-3.5-.5-1.81-.32-2.3.06-2.3.18 0 .43.26 1.12 1.12s1.8.35 1.42.01z" fill="#fff696"></path><g fill="#fff"><path d="M511.18 81.56h-44.07V45.11L404 79.24V22.78l-63.19 44V0l-54.22 56.78v59.51h-13.11v2.49h13.11v59.51l54.22 56.8v-66.8l63.15 44v-53.86l63.15 34.14v-33.06h44.07V81.56zm-2.51 2.51v32.24h-41.56V84.07h41.56zM464.6 49.32v67h-60.22V81.87l60.22-32.55zm-63.15-21.74v88.73h-60.22V69.56l60.22-41.98zM289.1 57.78l49.2-51.54v110h-49.2V57.78zm0 119.52v-58.52h49.2v110.09l-49.2-51.57zm52.13-11.76v-46.76h60.22v88.73l-60.22-41.97zm123.37 22.82l-60.22-32.58v-37h60.22v69.54.04zm2.51-31.36v-38.22h41.56v38.18l-41.56.04zM224.59 56.78L170.37 0v66.78l-63.14-44v56.46L44.08 45.11v36.45H0v77.95h44.08v33.06l63.15-34.14v53.93l63.14-44v66.8l54.22-56.8v-59.58h13.11v-2.51h-13.11V56.78zm-2.51 1v58.5h-49.2v-110l49.2 51.5zM170 69.56v46.75h-60.27V27.58L170 69.56zM46.59 49.32l60.21 32.55v34.44H46.59v-67 .01zm-2.51 34.75v32.24H2.51V84.07h41.57zM2.51 157v-38.22h41.57v38.18L2.51 157zm44.08 31.36v-69.58h60.21v37l-60.21 32.58zm63.14 19.19v-88.77H170v46.75l-60.27 42.02zm112.35-30.22l-49.2 51.54V118.78h49.2v58.55z"></path></g></svg> 