<?xml version="1.0" encoding="UTF-8"?> <svg xmlns="http://www.w3.org/2000/svg" width="70" height="52" fill="none" fill-rule="evenodd"><g fill="#555"><path d="M16.907 52c-2.895-.001-5.737-.775-8.231-2.244l-.791-.466c-1.833-1.079-3.41-2.479-4.686-4.16a15.62 15.62 0 0 1-2.468-4.769 15.83 15.83 0 0 1-.725-5.184c.046-1.758.38-3.496.989-5.146a16.08 16.08 0 0 1 2.676-4.659l6.072-7.379a1.08 1.08 0 0 1 1.508-.134 1.08 1.08 0 0 1 .159 1.505l-6.072 7.379c-4.101 4.984-4.274 12.009-.42 17.082a13.98 13.98 0 0 0 4.062 3.606l.791.466c2.163 1.273 4.627 1.945 7.137 1.945 2.323-.002 4.61-.577 6.657-1.675a1.08 1.08 0 0 1 1.458.441 1.08 1.08 0 0 1-.437 1.46c-2.361 1.267-4.999 1.931-7.679 1.932zM28.63 27.703a1.08 1.08 0 0 1-.854-.419l-6.416-7.927a1.08 1.08 0 0 1 .163-1.514 1.08 1.08 0 0 1 1.514.156l6.417 7.927a1.08 1.08 0 0 1 .155 1.151 1.08 1.08 0 0 1-.979.625z"></path><path d="M22.199 19.758H10.577c-.143 0-.284-.028-.415-.083a1.08 1.08 0 0 1-.584-.59 1.08 1.08 0 0 1-.079-.416l.052-5.138a1.08 1.08 0 0 1 1.079-1.068h11.6c.142 0 .283.028.414.083a1.08 1.08 0 0 1 .351.236c.1.101.18.22.233.352a1.08 1.08 0 0 1 .08.415l-.03 5.138a1.08 1.08 0 0 1-1.079 1.073zM11.667 17.6h9.46l.017-2.981h-9.447l-.03 2.981z"></path><path d="M10.626 14.619a1.08 1.08 0 0 1-.953-.573L5.495 6.174a1.08 1.08 0 0 1-.036-.938 1.08 1.08 0 0 1 .712-.611l5.941-1.572a1.08 1.08 0 0 1 .818.11 1.08 1.08 0 0 1 .501.657 1.08 1.08 0 0 1 .026.42c-.019.14-.065.276-.137.398a1.08 1.08 0 0 1-.657.501L8.038 6.363l3.236 6.098h2.502a1.08 1.08 0 0 1 1.079 1.079 1.08 1.08 0 0 1-1.079 1.079h-3.151zm11.6 0h-3.758a1.08 1.08 0 0 1-1.079-1.079 1.08 1.08 0 0 1 1.079-1.079h3.048l2.311-5.362-4.298-1.274a1.08 1.08 0 0 1-.642-.52 1.08 1.08 0 0 1 .11-1.194 1.08 1.08 0 0 1 1.145-.355l5.464 1.619a1.08 1.08 0 0 1 .67.577 1.08 1.08 0 0 1 .014.884l-3.073 7.13a1.08 1.08 0 0 1-.991.652z"></path><path d="M18.642 14.619h-4.273a1.08 1.08 0 0 1-1.056-.858L10.703 1.3a1.08 1.08 0 0 1 .285-.976 1.08 1.08 0 0 1 .447-.274 1.08 1.08 0 0 1 .523-.031l8.371 1.574a1.08 1.08 0 0 1 .869 1.206l-1.488 10.887a1.08 1.08 0 0 1-1.069.933zm-3.397-2.158H17.7l1.222-8.938-5.776-1.086 2.099 10.024zm30.749 23.341H26.129c-1.737 0-3.15-1.413-3.15-3.15v-3.956c0-1.737 1.413-3.15 3.15-3.15h19.865c1.737 0 3.15 1.413 3.15 3.15v3.956c0 1.737-1.413 3.15-3.15 3.15zm-19.865-8.099c-.263 0-.515.105-.702.291s-.291.438-.291.701v3.956c0 .263.105.515.291.702s.438.291.702.291h19.865c.263 0 .515-.105.701-.291s.291-.438.291-.702v-3.956c0-.263-.105-.515-.291-.701s-.438-.291-.701-.291H26.129z"></path><path d="M45.992 43.901H26.127c-.016 0-.035 0-.057-.001a3.16 3.16 0 0 1-3.093-3.149v-3.956a3.16 3.16 0 0 1 3.094-3.15l.056-.001h19.865l.124.006a1.08 1.08 0 0 1 .977 1.145 1.08 1.08 0 0 1-1.118 1.008H26.144l-.033.001c-.538.008-.976.452-.976.992v3.956c0 .541.439.985.979.992l.03.001h19.83a1.08 1.08 0 0 1 1.115 1.004 1.08 1.08 0 0 1-.966 1.148l-.131.006zm-19.778-2.153h0z"></path><path d="M45.994 52H26.129a1.68 1.68 0 0 1-.056-.001 3.16 3.16 0 0 1-3.094-3.15v-3.956a3.16 3.16 0 0 1 3.093-3.15l.057-.001h19.865l.131.006a1.08 1.08 0 0 1 .964 1.183 1.08 1.08 0 0 1-1.113.969H26.147l-.034.001c-.539.008-.976.452-.976.992v3.956c0 .541.439.986.979.992h.028 19.833a1.08 1.08 0 0 1 1.118 1.008 1.08 1.08 0 0 1-.977 1.145l-.124.005zm-19.797-2.155l.014.001z"></path></g><g fill="#66bb6a"><path d="M65.9 43.901H46.035c-1.737 0-3.15-1.413-3.15-3.15v-3.956c0-1.737 1.413-3.15 3.15-3.15H65.9c1.737 0 3.15 1.413 3.15 3.15v3.956c0 1.737-1.413 3.15-3.151 3.15zm-19.865-8.099c-.263 0-.515.105-.702.291s-.291.438-.291.702v3.956c0 .263.105.515.291.701s.438.291.702.291H65.9c.263 0 .515-.105.701-.291s.291-.438.291-.701v-3.956c0-.263-.105-.516-.291-.702s-.438-.291-.701-.291H46.035z"></path><path d="M65.899 52H46.035c-1.737 0-3.15-1.413-3.15-3.15v-3.956c0-1.737 1.413-3.15 3.15-3.15h19.865c1.737 0 3.15 1.413 3.15 3.15v3.956c0 1.737-1.413 3.15-3.15 3.15zm-19.865-8.099c-.263 0-.515.105-.702.291s-.291.438-.291.702v3.956c0 .263.105.515.291.702s.438.291.702.291h19.865c.263 0 .515-.105.702-.291s.291-.438.291-.702v-3.956c0-.263-.105-.516-.291-.702s-.438-.291-.702-.291H46.035zm-28.05-2.429h-4.37a1.08 1.08 0 0 1-1.079-1.079v-4.681a1.08 1.08 0 0 1 1.079-1.079h4.37c1.885 0 3.419 1.534 3.419 3.42s-1.534 3.419-3.419 3.419zm-3.291-2.158h3.291c.696 0 1.262-.566 1.262-1.262s-.566-1.262-1.262-1.262h-3.291v2.523z"></path><path d="M17.488 36.79h-3.874a1.08 1.08 0 0 1-1.079-1.079V31.03a1.08 1.08 0 0 1 1.079-1.079h3.874c1.885 0 3.42 1.534 3.42 3.419s-1.534 3.419-3.42 3.419zm-2.795-2.158h2.795c.335 0 .655-.133.892-.37s.37-.557.37-.892-.134-.655-.37-.892-.557-.37-.892-.37h-2.795v2.523z"></path><path d="M13.614 32.109h-1.137a1.08 1.08 0 0 1-1.079-1.079 1.08 1.08 0 0 1 1.079-1.079h1.137a1.08 1.08 0 0 1 1.079 1.079 1.08 1.08 0 0 1-1.079 1.079zm0 9.362h-1.137a1.08 1.08 0 0 1-1.079-1.079 1.08 1.08 0 0 1 1.079-1.079h1.137a1.08 1.08 0 0 1 1.079 1.079 1.08 1.08 0 0 1-1.079 1.079z"></path><path d="M14.809 32.109a1.08 1.08 0 0 1-1.079-1.079v-1.282a1.08 1.08 0 0 1 1.079-1.079 1.08 1.08 0 0 1 1.079 1.079v1.282a1.08 1.08 0 0 1-1.079 1.079zm2.372 0a1.08 1.08 0 0 1-1.079-1.079v-1.282a1.08 1.08 0 0 1 1.079-1.079 1.08 1.08 0 0 1 1.079 1.079v1.282a1.08 1.08 0 0 1-1.079 1.079zm-2.365 10.644a1.08 1.08 0 0 1-1.079-1.079v-1.282a1.08 1.08 0 0 1 1.079-1.079 1.08 1.08 0 0 1 1.079 1.079v1.282a1.08 1.08 0 0 1-1.079 1.079zm2.365 0a1.08 1.08 0 0 1-1.079-1.079v-1.282a1.08 1.08 0 0 1 1.079-1.079 1.08 1.08 0 0 1 1.079 1.079v1.282a1.08 1.08 0 0 1-1.079 1.079z"></path></g></svg> 