<?xml version="1.0" encoding="UTF-8"?> <svg xmlns="http://www.w3.org/2000/svg" viewBox="0 0 135 135" fill="#26eab2"><path d="M135 134.975H0V0h135v134.975zm-134.16-.84h133.32V.84H.84v133.295zm12.466-1.84c-5.998 0-9.988-.101-10.24-.353-.84-.84 0-40.825.554-61.044C4.46 43.312 5.821 9.98 7.929 7.896S43.37 4.385 70.931 3.578c20.219-.588 60.213-1.378 61.036-.554s0 40.825-.554 61.044c-.799 27.586-2.201 60.918-4.31 63.001s-35.44 3.512-63.001 4.318l-50.796.907zm-9.601-.991c2.755.378 31.198.101 61.179-.781 43.765-1.286 60.549-2.932 61.657-4.041s2.756-17.892 4.049-61.657c.84-29.98 1.151-58.424.773-61.179-2.755-.378-31.198-.109-61.179.773C26.419 5.712 9.635 7.35 8.527 8.467s-2.78 17.884-4.074 61.649c-.882 29.989-1.159 58.406-.781 61.187h.034zm11.138-1.672c-5.107 0-8.476-.176-8.904-.596-1.352-1.361-.193-32.761 1.235-54.711 1.31-20.043 4.15-54.324 8.501-58.675s38.641-7.199 58.684-8.501c21.925-1.428 53.35-2.596 54.702-1.235s.194 32.761-1.234 54.702c-1.311 20.043-4.15 54.324-8.501 58.676s-38.641 7.199-58.684 8.509c-15.062.983-34.592 1.831-45.798 1.831zm-8.257-1.201c1.898.84 27.217.294 54.601-1.512 33.08-2.176 54.601-5.242 57.575-8.215s6.048-24.495 8.224-57.575c1.797-27.393 2.326-52.72 1.503-54.601-1.898-.84-27.216-.294-54.601 1.512-33.08 2.176-54.601 5.25-57.575 8.224S10.265 40.758 8.089 73.83c-1.84 27.376-2.344 52.703-1.504 54.601zm10.375-1.461c-4.519 0-7.56-.252-8.115-.84-1.831-1.807-.462-27.007 1.94-48.377 1.546-14.087 5.88-47.57 12.668-54.324s40.254-11.13 54.324-12.693c21.404-2.377 46.537-3.755 48.377-1.915s.462 26.965-1.915 48.369c-1.571 14.087-5.939 47.579-12.693 54.333s-40.279 11.121-54.324 12.684c-14.516 1.613-30.745 2.764-40.262 2.764zM118.393 8.829c-8.4 0-23.26.84-40.564 2.747-29.552 3.284-49.158 7.821-53.762 12.441s-9.156 24.226-12.449 53.761c-2.89 25.99-3.293 46.545-2.159 47.73s21.74.731 47.73-2.167c29.56-3.285 49.158-7.821 53.762-12.441s9.156-24.226 12.449-53.762c2.889-25.982 3.293-46.546 2.159-47.722-.395-.386-2.957-.588-7.166-.588zM19.052 124.323c-3.881 0-6.544-.336-7.291-1.083-2.36-2.361-.563-23.647 2.596-42.044 2.066-12.012 7.837-40.926 16.876-49.964s37.952-14.818 49.964-16.884c18.397-3.158 39.683-4.956 42.043-2.596s.563 23.647-2.595 42.043c-2.058 12.012-7.838 40.934-16.876 49.973s-37.952 14.809-49.965 16.876c-12.55 2.125-26.444 3.679-34.752 3.679zm97.057-112.848c-7.426 0-20.304 1.193-34.769 3.679-11.928 2.05-40.649 7.779-49.511 16.641s-14.6 37.583-16.649 49.561c-3.704 21.555-4.545 39.582-2.822 41.304s19.749.84 41.304-2.831c11.928-2.05 40.649-7.77 49.511-16.641s14.6-37.582 16.65-49.519c3.704-21.555 4.544-39.582 2.83-41.304-.571-.605-2.898-.89-6.543-.89zM21.287 121.61c-3.36 0-5.729-.42-6.619-1.311-5.334-5.334 6.183-63.161 24.361-81.314 11.416-11.424 35.693-18.539 45.596-21.068 17.716-4.519 33.072-5.931 35.727-3.276s1.226 18.01-3.302 35.76c-2.52 9.912-9.643 34.189-21.059 45.605-15.129 15.087-57.802 25.604-74.703 25.604zM113.74 14.146c-6.174 0-16.473 1.411-28.922 4.587-9.837 2.52-33.945 9.576-45.21 20.841-19.11 19.111-28.72 75.762-24.361 80.138s61.028-5.241 80.13-24.36c11.273-11.273 18.329-35.373 20.841-45.21 4.83-18.909 5.577-32.853 3.503-34.92-.689-.697-2.781-1.075-5.981-1.075zm-90.212 104.81c-2.839 0-4.897-.513-5.947-1.563-3.1-3.1-1.504-14.919 3.973-29.401 6.157-16.313 15.356-31.341 25.201-41.22s24.898-19.068 41.22-25.201c14.49-5.477 26.318-7.073 29.401-3.973s1.503 14.919-3.965 29.401c-6.166 16.322-15.364 31.341-25.243 41.22s-24.898 19.077-41.22 25.201c-9.526 3.612-17.926 5.536-23.42 5.536zM111.453 16.8c-13.255 0-45.226 11.76-64.068 30.552-22.462 22.462-34.92 63.766-29.216 69.411 2.822 2.831 14.558 1.117 28.561-4.158 16.213-6.124 31.123-15.255 40.918-25.05 22.429-22.429 34.861-63.732 29.183-69.411-.925-.924-2.798-1.344-5.377-1.344zm-85.698 99.51c-.955.063-1.913-.066-2.818-.379s-1.737-.804-2.449-1.444c-7.249-7.258 7.72-33.601 34.08-59.953 12.5-12.533 25.579-22.941 36.86-29.392 11.391-6.544 19.606-8.207 23.126-4.679 7.258 7.249-7.712 33.601-34.08 59.944-21.916 21.874-43.765 35.903-54.719 35.903zm83.448-96.872c-10.551 0-32.568 14.213-54.039 35.693-12.458 12.458-22.849 25.511-29.258 36.65-6.241 10.87-7.997 18.926-4.813 22.109 6.796 6.805 33.156-8.484 58.802-34.079 12.374-12.449 22.79-25.469 29.174-36.642 6.242-10.92 7.997-18.934 4.814-22.118-.635-.565-1.375-.999-2.178-1.275s-1.653-.392-2.501-.337z"></path></svg> 