<?xml version="1.0" encoding="UTF-8"?> <svg xmlns="http://www.w3.org/2000/svg" width="62" height="79" fill="none" fill-rule="evenodd"><path d="M30.855 78.841a1.23 1.23 0 0 1-.781-.279L10.348 62.385C3.772 56.992 0 49.227 0 41.08V12.299a1.23 1.23 0 0 1 1.012-1.212l4.827-.877c8.496-1.543 14.615-5.47 17.506-7.674A12.46 12.46 0 0 1 30.855 0a12.46 12.46 0 0 1 7.51 2.536c2.891 2.204 9.01 6.131 17.506 7.673l4.828.876c.284.052.541.201.726.423a1.23 1.23 0 0 1 .286.79V41.08c0 8.147-3.771 15.912-10.347 21.305L31.636 78.561c-.22.181-.496.28-.781.279zM11.91 60.479l18.945 15.536 18.946-15.536c6.003-4.923 9.446-11.994 9.446-19.4V13.327l-3.816-.693c-9.003-1.635-15.492-5.8-18.559-8.138a9.98 9.98 0 0 0-6.016-2.032 9.98 9.98 0 0 0-6.017 2.033C21.772 6.834 15.283 11 6.279 12.635l-3.815.693V41.08c0 7.406 3.443 14.476 9.446 19.399zM30.857 71.24a1.23 1.23 0 0 1-.781-.279l-16-13.121c-5.209-4.272-8.197-10.381-8.197-16.76V17.206a1.23 1.23 0 0 1 1.012-1.212c9.219-1.674 15.975-5.7 20.019-8.783a6.53 6.53 0 0 1 7.894 0c4.044 3.082 10.8 7.108 20.019 8.782a1.23 1.23 0 0 1 1.012 1.212V41.08c0 6.379-2.988 12.488-8.197 16.76l-16 13.121a1.23 1.23 0 0 1-.781.279zM8.342 18.223V41.08c0 5.639 2.659 11.053 7.295 14.855l15.219 12.48 15.219-12.48c4.636-3.802 7.295-9.217 7.295-14.855V18.222a49.78 49.78 0 0 1-11.8-3.994c-2.964-1.437-5.743-3.138-8.26-5.057a4.06 4.06 0 0 0-4.907 0c-2.517 1.919-5.296 3.621-8.26 5.058a49.76 49.76 0 0 1-11.8 3.995z" fill="#555"></path><path d="M30.857 50.949a15.6 15.6 0 0 1-11.109-4.602 15.61 15.61 0 0 1-4.602-11.109c0-4.196 1.634-8.142 4.602-11.109a15.61 15.61 0 0 1 11.109-4.602c4.196 0 8.142 1.634 11.109 4.602a15.61 15.61 0 0 1 4.602 11.109 15.61 15.61 0 0 1-4.601 11.109 15.61 15.61 0 0 1-11.109 4.601zm0-28.958c-7.305 0-13.247 5.943-13.247 13.247s5.943 13.247 13.247 13.247 13.247-5.943 13.247-13.247-5.943-13.247-13.247-13.247zm-2.842 19.39c-.162 0-.322-.032-.471-.094a1.23 1.23 0 0 1-.4-.267l-4.139-4.139a1.23 1.23 0 0 1-.361-.871c0-.162.032-.322.094-.471s.153-.285.267-.4a1.23 1.23 0 0 1 1.742 0l3.268 3.268 8.95-8.95a1.23 1.23 0 1 1 1.742 1.742l-9.821 9.821a1.23 1.23 0 0 1-.871.361z" fill="#66bb6a"></path></svg> 