<?xml version="1.0" encoding="UTF-8"?> <svg xmlns="http://www.w3.org/2000/svg" width="61" height="66" fill="none" fill-rule="evenodd"><g fill="#555"><path d="M47.812 65.656H1.026a1.02 1.02 0 0 1-.725-.301c-.192-.193-.3-.453-.3-.725V1.026C0 .754.108.493.3.3a1.02 1.02 0 0 1 .725-.3h46.786c.272 0 .533.108.725.3s.3.453.3.725v9.982c0 .272-.108.533-.3.725s-.453.301-.725.301a1.02 1.02 0 0 1-.725-.301c-.192-.193-.3-.453-.3-.725V2.052H2.052v61.552h44.734V32.383c0-.272.108-.533.3-.725s.453-.3.725-.3.533.108.725.3.3.453.3.725V64.63c0 .272-.108.533-.3.725s-.453.301-.725.301zM13.788 56.35c-.272 0-.533-.108-.725-.3s-.3-.453-.3-.725V29.201h-2.109v26.123c0 .272-.108.533-.3.725s-.453.3-.725.3-.533-.108-.725-.3-.3-.453-.3-.725V28.175c0-.272.108-.533.3-.725s.453-.3.725-.3h4.161c.272 0 .533.108.725.3s.3.453.3.725v27.149a1.02 1.02 0 0 1-.078.393 1.03 1.03 0 0 1-.222.333c-.095.095-.208.171-.333.222a1.04 1.04 0 0 1-.393.078zm8.475 0c-.272 0-.533-.108-.725-.3s-.301-.453-.301-.725v-21.47h-2.109v21.47c0 .272-.108.533-.3.725s-.453.3-.725.3-.533-.108-.725-.3-.3-.453-.3-.725V32.828c0-.272.108-.533.3-.725s.453-.301.725-.301h4.161a1.02 1.02 0 0 1 .725.301c.192.193.3.453.3.725v22.496c0 .272-.108.533-.3.725s-.453.3-.725.3zm8.475 0c-.272 0-.533-.108-.725-.3s-.3-.453-.3-.725V38.256h-2.109v17.068c0 .272-.108.533-.3.725s-.453.3-.725.3-.533-.108-.725-.3-.301-.453-.301-.725V37.23a1.02 1.02 0 0 1 .301-.725 1.03 1.03 0 0 1 .725-.301h4.161a1.02 1.02 0 0 1 .725.301c.192.193.3.453.3.725v18.094c0 .272-.108.533-.3.725s-.453.3-.725.3zm8.475 0c-.272 0-.533-.108-.725-.3s-.3-.453-.3-.725v-12.55h-2.109v12.549c0 .272-.108.533-.3.725s-.453.3-.725.3-.533-.108-.725-.3-.3-.453-.3-.725V41.749c0-.272.108-.533.3-.725s.453-.3.725-.3h4.161c.272 0 .533.108.725.3s.3.453.3.725v13.575a1.02 1.02 0 0 1-.078.393 1.03 1.03 0 0 1-.222.333c-.095.095-.208.171-.333.222a1.04 1.04 0 0 1-.393.078z"></path><path d="M42.496 60.39H6.346c-.272 0-.533-.108-.725-.3s-.3-.453-.3-.725v-4.04c0-.272.108-.533.3-.725s.453-.3.725-.3h36.15c.272 0 .533.108.725.3s.3.453.3.725v4.04c0 .272-.108.533-.3.725s-.453.3-.725.3zM7.372 58.339H41.47V56.35H7.372v1.989zm5.7-34.628c-3.803 0-6.897-3.094-6.897-6.897s3.094-6.897 6.897-6.897c.272 0 .533.108.725.3s.3.453.3.725v4.845h4.845a1.02 1.02 0 0 1 .725.301c.192.193.3.453.3.725 0 3.803-3.094 6.897-6.897 6.897zm-1.026-11.633c-2.181.472-3.819 2.416-3.819 4.736a4.85 4.85 0 0 0 4.845 4.845c2.32 0 4.264-1.639 4.736-3.819h-4.736c-.272 0-.533-.108-.725-.3s-.3-.453-.3-.725v-4.736zm10.327 2.332h-5.871c-.272 0-.533-.108-.725-.3s-.3-.453-.3-.725V7.513c0-.272.108-.533.3-.725s.453-.3.725-.3c3.803 0 6.897 3.094 6.897 6.897 0 .272-.108.533-.3.725s-.453.3-.725.3zm-4.845-2.052h3.71a4.86 4.86 0 0 0-3.71-3.71v3.71z"></path></g><g fill="#66bb6a"><path d="M57.862 42.991c-.906 0-1.849-.42-2.543-1.151L44.22 30.068c-.091-.099-.162-.215-.208-.342s-.067-.261-.061-.396.038-.267.095-.389.137-.232.236-.323.215-.162.342-.208.261-.067.396-.061.267.038.389.095.232.137.323.236l11.078 11.75c.415.437.889.543 1.167.501.111-.017.202-.058.27-.121.096-.089.147-.222.152-.395.01-.337-.158-.721-.45-1.029l-11.021-11.69c-.184-.198-.282-.461-.272-.732s.125-.526.322-.711.459-.286.729-.279.527.12.715.315l11.019 11.687c.668.704 1.037 1.617 1.011 2.501-.022.719-.307 1.37-.802 1.833-.371.346-.842.571-1.363.65a2.85 2.85 0 0 1-.422.031z"></path><path d="M38.058 32.423a13.51 13.51 0 0 1-8.005-2.62c-2.919-2.133-4.823-5.268-5.362-8.829s.352-7.119 2.509-10.02a13.54 13.54 0 0 1 8.901-5.336 13.54 13.54 0 0 1 10.081 2.463 13.34 13.34 0 0 1 5.362 8.828c.539 3.56-.352 7.119-2.509 10.02a13.54 13.54 0 0 1-8.901 5.336 13.86 13.86 0 0 1-2.076.157zm.105-24.903c-3.546 0-7.052 1.613-9.316 4.659-1.828 2.459-2.584 5.473-2.127 8.489s2.07 5.672 4.544 7.479a11.51 11.51 0 0 0 6.81 2.219c3.546 0 7.052-1.613 9.316-4.659 1.828-2.459 2.583-5.473 2.127-8.488s-2.07-5.671-4.544-7.479c-2.049-1.497-4.438-2.218-6.81-2.218zm-.065 20.628a9.13 9.13 0 0 1-5.441-1.797 9.14 9.14 0 0 1-3.639-6.031c-.368-2.431.233-4.859 1.691-6.838a9.14 9.14 0 0 1 6.031-3.639c2.43-.368 4.859.233 6.838 1.691a9.14 9.14 0 0 1 3.639 6.031c.368 2.431-.233 4.859-1.691 6.838a9.14 9.14 0 0 1-6.031 3.639 9.35 9.35 0 0 1-1.397.106zm.024-16.358a7.17 7.17 0 0 0-1.075.081 7.16 7.16 0 0 0-6.001 8.141c.535 3.538 3.592 6.082 7.067 6.082.36 0 .719-.027 1.075-.081 1.889-.286 3.553-1.29 4.687-2.828a7.1 7.1 0 0 0 1.314-5.314c-.535-3.538-3.592-6.082-7.067-6.082z"></path></g></svg> 