<?xml version="1.0" encoding="UTF-8"?> <svg xmlns="http://www.w3.org/2000/svg" width="100" height="87" viewBox="0 0 100 87" fill="#0E933B"><defs><path id="B" d="M42.305 58.591l-3.512 2.285.758 1.175 3.512-2.285-.758-1.175z"></path><path id="C" d="M74.634 69.55l-.761 1.173 3.506 2.296.761-1.173-3.506-2.296z"></path><path id="D" d="M67.619 64.955l-.761 1.173 3.506 2.296.761-1.173-3.505-2.296z"></path><path id="E" d="M50.694 35.031h-1.394v4.204h1.394v-4.204z"></path></defs><path d="M50 0L0 87h100L50 0zm-.699 4.015v1.577h1.394V4.015l45.949 79.949-.977-.639-.762 1.183 1.68 1.1H2.414L49.301 4.015z"></path><use href="#B"></use><use href="#B" x="-7.024" y="4.57"></use><path d="M21.231 72.301l-3.512 2.285.757 1.175 3.512-2.285-.758-1.175z"></path><use href="#B" x="-14.048" y="9.138"></use><use href="#B" x="-28.099" y="18.283"></use><use href="#B" x="-35.121" y="22.855"></use><use href="#C"></use><use href="#D"></use><use href="#D" x="14.024" y="9.183"></use><use href="#C" x="-14.026" y="-9.18"></use><use href="#C" x="14.019" y="9.177"></use><use href="#C" x="-21.035" y="-13.776"></use><use href="#E"></use><use href="#E" y="-8.408"></use><path d="M50.694 9.808h-1.394v4.204h1.394V9.808z"></path><use href="#E" y="8.408"></use><use href="#E" y="-16.815"></use><path d="M49.301 54.031l-3.482 2.268.758 1.175 3.513-2.283-.553-.856h1.158v-2.488h-1.394v2.185z"></path></svg> 